# Blender 4.5.4 LTS
# www.blender.org
mtllib cube_bulge.mtl
o Cube
v -0.500000 -0.500000 0.500000
v -0.510229 0.500000 0.506307
v -0.500000 -0.500000 -0.500000
v -0.510229 0.500000 -0.506307
v 0.500000 -0.500000 0.500000
v 0.510229 0.500000 0.506307
v 0.500000 -0.500000 -0.500000
v 0.510229 0.500000 -0.506307
v -0.500000 -0.500000 0.000000
v -0.510229 0.000000 0.506307
v -0.514781 0.500000 0.000000
v -0.510229 0.000000 -0.506307
v 0.000000 -0.500000 -0.500000
v 0.000000 0.500000 -0.514781
v 0.510229 0.000000 -0.506307
v 0.500000 -0.500000 0.000000
v 0.514781 0.500000 0.000000
v 0.510229 0.000000 0.506307
v 0.000000 -0.500000 0.500000
v 0.000000 0.500000 0.514781
v 0.000000 0.500000 0.000000
v 0.000000 -0.500000 0.000000
v 0.000000 0.000000 0.514781
v 0.514781 0.000000 0.000000
v 0.000000 0.000000 -0.514781
v -0.514781 0.000000 0.000000
v -0.557624 0.250000 0.567826
v -0.514755 0.500000 -0.250000
v -0.500000 -0.250000 -0.500000
v 0.250000 0.500000 -0.514781
v 0.500000 -0.250000 -0.500000
v 0.514755 0.500000 0.250000
v 0.500000 -0.250000 0.500000
v -0.250000 0.500000 0.514781
v -0.500000 -0.250000 0.500000
v -0.514755 0.500000 0.250000
v -0.557624 0.250000 -0.567826
v -0.250000 0.500000 -0.514781
v 0.557624 0.250000 -0.567826
v 0.514755 0.500000 -0.250000
v 0.557624 0.250000 0.567826
v 0.250000 0.500000 0.514781
v 0.000000 0.500000 0.250000
v 0.000000 0.500000 -0.250000
v 0.250000 0.500000 0.000000
v -0.250000 0.500000 0.000000
v -0.250000 0.000000 0.514781
v 0.250000 0.000000 0.514781
v 0.000000 -0.250000 0.500000
v 0.000000 0.250000 0.600000
v 0.514755 0.000000 0.250000
v 0.514755 0.000000 -0.250000
v 0.500000 -0.250000 0.000000
v 0.600000 0.250000 0.000000
v 0.250000 0.000000 -0.514781
v -0.250000 0.000000 -0.514781
v 0.000000 -0.250000 -0.500000
v 0.000000 0.250000 -0.600000
v -0.514755 0.000000 -0.250000
v -0.514755 0.000000 0.250000
v -0.500000 -0.250000 0.000000
v -0.600000 0.250000 0.000000
v -0.600000 0.250000 0.256307
v -0.500000 -0.250000 0.250000
v -0.500000 -0.250000 -0.250000
v -0.251245 0.250000 -0.600000
v -0.250000 -0.250000 -0.500000
v 0.250000 -0.250000 -0.500000
v 0.600000 0.250000 -0.256307
v 0.500000 -0.250000 -0.250000
v 0.500000 -0.250000 0.250000
v 0.251245 0.250000 0.600000
v 0.250000 -0.250000 0.500000
v -0.250000 -0.250000 0.500000
v -0.250000 0.500000 -0.250000
v 0.250000 0.500000 -0.250000
v 0.250000 0.500000 0.250000
v -0.250000 0.500000 0.250000
v -0.251245 0.250000 0.600000
v 0.600000 0.250000 0.256307
v 0.251245 0.250000 -0.600000
v -0.600000 0.250000 -0.256307
v -0.544656 0.375000 0.544656
v -0.513566 0.500000 -0.376487
v 0.378093 0.500000 -0.514781
v 0.513566 0.500000 0.376487
v -0.378093 0.500000 0.514781
v -0.500000 -0.125000 0.500000
v -0.514781 0.500000 0.125000
v -0.544656 0.125000 -0.544656
v -0.125000 0.500000 -0.514781
v 0.544656 0.125000 -0.544656
v 0.514781 0.500000 -0.125000
v 0.544656 0.125000 0.544656
v 0.125000 0.500000 0.514781
v -0.378093 0.000000 0.514781
v 0.125000 0.000000 0.514781
v 0.000000 0.125000 0.567826
v 0.513566 0.000000 0.376487
v 0.514781 0.000000 -0.125000
v 0.567826 0.125000 0.000000
v 0.378093 0.000000 -0.514781
v -0.125000 0.000000 -0.514781
v 0.000000 0.125000 -0.567826
v -0.513566 0.000000 -0.376487
v -0.514781 0.000000 0.125000
v -0.567826 0.125000 0.000000
v -0.544656 0.125000 0.544656
v -0.514781 0.500000 -0.125000
v -0.500000 -0.125000 -0.500000
v 0.125000 0.500000 -0.514781
v 0.500000 -0.125000 -0.500000
v 0.514781 0.500000 0.125000
v 0.500000 -0.125000 0.500000
v -0.125000 0.500000 0.514781
v -0.513566 0.500000 0.376487
v -0.544656 0.375000 -0.544656
v -0.378093 0.500000 -0.514781
v 0.544656 0.375000 -0.544656
v 0.513566 0.500000 -0.376487
v 0.544656 0.375000 0.544656
v 0.378093 0.500000 0.514781
v -0.125000 0.000000 0.514781
v 0.378093 0.000000 0.514781
v 0.000000 -0.125000 0.500000
v 0.000000 0.375000 0.567826
v 0.514781 0.000000 0.125000
v 0.513566 0.000000 -0.376487
v 0.500000 -0.125000 0.000000
v 0.567826 0.375000 0.000000
v 0.125000 0.000000 -0.514781
v -0.378093 0.000000 -0.514781
v 0.000000 -0.125000 -0.500000
v 0.000000 0.375000 -0.567826
v -0.514781 0.000000 -0.125000
v -0.513566 0.000000 0.376487
v -0.500000 -0.125000 0.000000
v -0.567826 0.375000 0.000000
v -0.600000 0.250000 0.125000
v -0.600000 0.250000 0.419656
v -0.567786 0.125000 0.251487
v -0.567786 0.375000 0.251487
v -0.500000 -0.125000 0.250000
v -0.500000 -0.125000 -0.250000
v -0.125000 0.250000 -0.600000
v -0.401157 0.250000 -0.600000
v -0.250499 0.125000 -0.567826
v -0.250499 0.375000 -0.567826
v -0.250000 -0.125000 -0.500000
v 0.250000 -0.125000 -0.500000
v 0.600000 0.250000 -0.125000
v 0.600000 0.250000 -0.419656
v 0.567786 0.125000 -0.251487
v 0.567786 0.375000 -0.251487
v 0.500000 -0.125000 -0.250000
v 0.500000 -0.125000 0.250000
v 0.125000 0.250000 0.600000
v 0.401157 0.250000 0.600000
v 0.250499 0.125000 0.567826
v 0.250499 0.375000 0.567826
v 0.250000 -0.125000 0.500000
v -0.250000 -0.125000 0.500000
v -0.401157 0.250000 0.600000
v -0.125000 0.250000 0.600000
v -0.250499 0.125000 0.567826
v -0.250499 0.375000 0.567826
v 0.600000 0.250000 0.419656
v 0.600000 0.250000 0.125000
v 0.567786 0.125000 0.251487
v 0.567786 0.375000 0.251487
v 0.401157 0.250000 -0.600000
v 0.125000 0.250000 -0.600000
v 0.250499 0.125000 -0.567826
v 0.250499 0.375000 -0.567826
v -0.600000 0.250000 -0.419656
v -0.600000 0.250000 -0.125000
v -0.567786 0.125000 -0.251487
v -0.567786 0.375000 -0.251487
v -0.567826 0.375000 -0.125000
v -0.567826 0.125000 -0.125000
v -0.567315 0.125000 -0.402348
v 0.125000 0.375000 -0.567826
v 0.125000 0.125000 -0.567826
v 0.396730 0.125000 -0.567826
v 0.567826 0.375000 0.125000
v 0.567826 0.125000 0.125000
v 0.567315 0.125000 0.402348
v -0.125000 0.375000 0.567826
v -0.125000 0.125000 0.567826
v -0.396730 0.125000 0.567826
v -0.381307 0.500000 0.125000
v -0.125000 0.500000 0.381307
v 0.381307 0.500000 0.125000
v 0.380703 0.500000 0.381307
v 0.125000 0.500000 -0.381307
v 0.380703 0.500000 -0.381307
v 0.381307 0.500000 -0.125000
v -0.380703 0.500000 -0.381307
v -0.125000 0.500000 -0.381307
v -0.125000 -0.125000 0.500000
v 0.375000 -0.125000 0.500000
v 0.396730 0.375000 0.567826
v 0.396730 0.125000 0.567826
v 0.125000 0.125000 0.567826
v 0.500000 -0.125000 0.125000
v 0.500000 -0.125000 -0.375000
v 0.567315 0.375000 -0.402348
v 0.567315 0.125000 -0.402348
v 0.567826 0.125000 -0.125000
v 0.125000 -0.125000 -0.500000
v -0.375000 -0.125000 -0.500000
v -0.396730 0.375000 -0.567826
v -0.396730 0.125000 -0.567826
v -0.125000 0.125000 -0.567826
v -0.500000 -0.125000 -0.125000
v -0.500000 -0.125000 0.375000
v -0.567315 0.375000 0.402348
v -0.567315 0.125000 0.402348
v -0.567826 0.125000 0.125000
v -0.567826 0.375000 0.125000
v -0.500000 -0.125000 0.125000
v -0.500000 -0.125000 -0.375000
v -0.125000 0.375000 -0.567826
v -0.125000 -0.125000 -0.500000
v 0.375000 -0.125000 -0.500000
v 0.567826 0.375000 -0.125000
v 0.500000 -0.125000 -0.125000
v 0.500000 -0.125000 0.375000
v 0.125000 0.375000 0.567826
v 0.125000 -0.125000 0.500000
v -0.375000 -0.125000 0.500000
v -0.381307 0.500000 -0.125000
v 0.125000 0.500000 0.381307
v -0.380703 0.500000 0.381307
v -0.396730 0.375000 0.567826
v 0.567315 0.375000 0.402348
v 0.396730 0.375000 -0.567826
v -0.567315 0.375000 -0.402348
vn -0.9319 0.3516 -0.0890
vn 0.1047 0.3610 -0.9267
vn 0.9319 0.3516 0.0890
vn -0.1047 0.3610 0.9267
vn -1.0000 -0.0000 -0.0000
vn -0.0000 1.0000 -0.0000
vn -0.0000 -0.0000 1.0000
vn -0.0328 -0.0857 0.9958
vn -0.0000 -0.1174 0.9931
vn -0.0000 0.3906 0.9205
vn 0.9954 -0.0951 0.0130
vn 0.9931 -0.1174 -0.0000
vn 0.9205 0.3906 -0.0000
vn 0.0328 -0.0857 -0.9958
vn -0.0000 -0.1174 -0.9931
vn -0.0000 0.3906 -0.9205
vn -0.9954 -0.0951 -0.0130
vn -0.9931 -0.1174 -0.0000
vn -0.9205 0.3906 -0.0000
vn -0.9684 -0.2493 -0.0000
vn -0.9679 -0.2514 0.0015
vn -0.9194 0.3933 0.0055
vn -0.9936 -0.1126 0.0047
vn -0.0000 -0.0000 -1.0000
vn -0.9931 -0.1173 -0.0001
vn -0.0000 -0.2493 -0.9684
vn 1.0000 -0.0000 -0.0000
vn 0.9684 -0.2493 -0.0000
vn 0.9679 -0.2514 -0.0015
vn 0.9194 0.3933 -0.0055
vn 0.9936 -0.1126 -0.0047
vn 0.9931 -0.1173 0.0001
vn -0.0000 -0.2493 0.9684
vn -0.0000 -1.0000 -0.0000
vn -0.1743 -0.2244 0.9588
vn 0.9543 -0.2089 0.2137
vn 0.9684 -0.2494 0.0001
vn 0.9206 0.3906 0.0002
vn 0.1743 -0.2244 -0.9588
vn -0.9543 -0.2089 -0.2137
vn -0.9684 -0.2494 -0.0001
vn -0.9206 0.3906 -0.0002
vn -0.9684 0.2494 -0.0001
vn -0.9684 0.2493 -0.0000
vn -0.9206 -0.3906 -0.0002
vn -0.9205 -0.3906 -0.0000
vn -0.9319 -0.3516 -0.0890
vn -0.9194 -0.3933 -0.0055
vn -0.9679 -0.2514 -0.0015
vn -0.0000 0.2493 -0.9684
vn -0.0000 -0.3906 -0.9205
vn 0.1047 -0.3610 -0.9267
vn 0.9684 0.2494 0.0001
vn 0.9684 0.2493 -0.0000
vn 0.9206 -0.3906 0.0002
vn 0.9205 -0.3906 -0.0000
vn 0.9319 -0.3516 0.0890
vn 0.9194 -0.3933 0.0055
vn 0.9679 -0.2514 0.0015
vn -0.0000 0.2493 0.9684
vn -0.0000 -0.3906 0.9205
vn -0.1047 -0.3610 0.9267
vn 0.0328 -0.0857 0.9958
vn 0.1743 0.2244 0.9588
vn 0.1047 0.3610 0.9267
vn 0.1047 -0.3610 0.9267
vn 0.1743 -0.2244 0.9588
vn 0.9954 -0.0951 -0.0130
vn 0.9679 0.2514 -0.0015
vn 0.9543 0.2089 -0.2137
vn 0.9319 0.3516 -0.0890
vn 0.9194 -0.3933 -0.0055
vn 0.9319 -0.3516 -0.0890
vn 0.9543 -0.2089 -0.2137
vn 0.9206 -0.3906 -0.0002
vn 0.9684 -0.2494 -0.0001
vn -0.0328 -0.0857 -0.9958
vn -0.1743 0.2244 -0.9588
vn -0.1047 0.3610 -0.9267
vn -0.1047 -0.3610 -0.9267
vn -0.1743 -0.2244 -0.9588
vn -0.9954 -0.0951 0.0130
vn -0.9679 0.2514 0.0015
vn -0.9543 0.2089 0.2137
vn -0.9319 0.3516 0.0890
vn -0.9194 -0.3933 0.0055
vn -0.9319 -0.3516 0.0890
vn -0.9543 -0.2089 0.2137
vn -0.9206 -0.3906 0.0002
vn -0.9684 -0.2494 0.0001
vn -0.9684 0.2494 0.0001
vn -0.9206 0.3906 0.0002
vn -0.9931 -0.1173 0.0001
vn -0.9936 -0.1126 -0.0047
vn 0.9684 0.2494 -0.0001
vn 0.9206 0.3906 -0.0002
vn 0.9931 -0.1173 -0.0001
vn 0.9936 -0.1126 0.0047
vn -0.1743 0.2244 0.9588
vn 0.9543 0.2089 0.2137
vn 0.9679 0.2514 0.0015
vn 0.9194 0.3933 0.0055
vn 0.1743 0.2244 -0.9588
vn -0.9543 0.2089 -0.2137
vn -0.9679 0.2514 -0.0015
vn -0.9194 0.3933 -0.0055
s 0
usemtl Top
f 234//6 116//6 2//6 87//6
f 93//6 197//6 17//6
f 192//6 115//6 20//6
f 198//6 84//6 28//6
f 28//6 232//6 75//6 198//6
f 93//6 40//6 197//6
f 14//6 199//6 44//6 195//6
f 77//6 233//6 42//6 194//6
f 86//6 32//6 194//6
f 78//6 234//6 34//6 192//6
f 191//6 89//6 36//6
f 36//6 234//6 78//6 191//6
f 191//6 78//6 46//6
f 191//6 46//6 232//6 11//6
f 45//6 76//6 44//6 21//6
f 43//6 21//6 46//6 78//6
f 195//6 44//6 76//6
f 192//6 20//6 233//6 43//6
f 28//6 109//6 232//6
f 199//6 75//6 44//6
f 75//6 232//6 46//6
f 14//6 91//6 199//6
f 193//6 17//6 197//6 45//6
f 91//6 38//6 199//6
f 86//6 194//6 122//6 6//6
f 115//6 192//6 34//6
f 195//6 76//6 196//6 30//6
f 8//6 85//6 196//6 120//6
f 77//6 194//6 32//6 193//6
f 122//6 194//6 42//6
f 30//6 111//6 195//6
f 198//6 75//6 199//6 38//6
f 118//6 4//6 84//6 198//6
f 11//6 89//6 191//6
f 75//6 46//6 21//6 44//6
f 38//6 118//6 198//6
f 197//6 76//6 45//6
f 77//6 45//6 21//6 43//6
f 36//6 116//6 234//6
f 233//6 95//6 42//6
f 95//6 233//6 20//6
f 85//6 30//6 196//6
f 76//6 197//6 40//6 196//6
f 113//6 17//6 193//6
f 77//6 193//6 45//6
f 113//6 193//6 32//6
f 120//6 196//6 40//6
f 232//6 109//6 11//6
f 78//6 192//6 43//6
f 234//6 87//6 34//6
f 43//6 233//6 77//6
f 111//6 14//6 195//6
usemtl Sides
f 238//1 84//1 4//1 117//1
f 237//2 85//2 8//2 119//2
f 236//3 86//3 6//3 121//3
f 235//4 87//4 2//4 83//4
f 65//5 222//5 29//5
f 1//5 64//5 9//5
f 216//5 64//5 35//5
f 231//7 88//7 35//7
f 231//8 96//8 10//8 88//8
f 230//9 97//9 23//9 125//9
f 229//10 95//10 20//10 126//10
f 228//11 99//11 18//11 114//11
f 227//12 100//12 24//12 129//12
f 226//13 93//13 17//13 130//13
f 225//14 102//14 15//14 112//14
f 224//15 103//15 25//15 133//15
f 223//16 91//16 14//16 134//16
f 222//17 105//17 12//17 110//17
f 221//18 106//18 26//18 137//18
f 220//19 89//19 11//19 138//19
f 219//20 139//20 62//20 107//20
f 218//21 140//21 63//21 141//21
f 217//22 116//22 36//22 142//22
f 222//5 110//5 29//5
f 65//5 144//5 222//5
f 216//23 136//23 60//23 143//23
f 67//24 149//24 224//24
f 215//25 135//25 59//25 144//25
f 214//26 145//26 58//26 104//26
f 213//26 146//26 66//26 147//26
f 212//16 118//16 38//16 148//16
f 225//24 112//24 31//24
f 68//24 150//24 225//24
f 211//15 132//15 56//15 149//15
f 70//27 155//27 227//27
f 210//15 131//15 55//15 150//15
f 209//28 151//28 54//28 101//28
f 208//29 152//29 69//29 153//29
f 207//30 120//30 40//30 154//30
f 71//27 156//27 228//27
f 206//31 128//31 52//31 155//31
f 49//7 19//7 73//7
f 73//7 161//7 230//7
f 205//32 127//32 51//32 156//32
f 204//33 157//33 50//33 98//33
f 203//33 158//33 72//33 159//33
f 202//10 122//10 42//10 160//10
f 7//27 31//27 70//27
f 74//7 162//7 231//7
f 201//9 124//9 48//9 161//9
f 200//9 123//9 47//9 162//9
f 224//24 133//24 57//24
f 31//24 7//24 68//24
f 190//35 163//35 27//35 108//35
f 189//33 164//33 79//33 165//33
f 188//10 115//10 34//10 166//10
f 187//36 167//36 41//36 94//36
f 186//37 168//37 80//37 169//37
f 185//38 113//38 32//38 170//38
f 184//39 171//39 39//39 92//39
f 183//26 172//26 81//26 173//26
f 182//16 111//16 30//16 174//16
f 181//40 175//40 37//40 90//40
f 180//41 176//41 82//41 177//41
f 179//42 109//42 28//42 178//42
f 176//43 179//43 178//43 82//43
f 62//44 138//44 179//44 176//44
f 138//19 11//19 109//19 179//19
f 135//45 180//45 177//45 59//45
f 26//46 107//46 180//46 135//46
f 107//20 62//20 176//20 180//20
f 105//47 181//47 90//47 12//47
f 59//48 177//48 181//48 105//48
f 177//49 82//49 175//49 181//49
f 172//50 182//50 174//50 81//50
f 58//50 134//50 182//50 172//50
f 134//16 14//16 111//16 182//16
f 131//51 183//51 173//51 55//51
f 25//51 104//51 183//51 131//51
f 104//26 58//26 172//26 183//26
f 102//52 184//52 92//52 15//52
f 55//51 173//51 184//51 102//51
f 173//26 81//26 171//26 184//26
f 168//53 185//53 170//53 80//53
f 54//54 130//54 185//54 168//54
f 130//13 17//13 113//13 185//13
f 127//55 186//55 169//55 51//55
f 24//56 101//56 186//56 127//56
f 101//28 54//28 168//28 186//28
f 99//57 187//57 94//57 18//57
f 51//58 169//58 187//58 99//58
f 169//59 80//59 167//59 187//59
f 164//60 188//60 166//60 79//60
f 50//60 126//60 188//60 164//60
f 126//10 20//10 115//10 188//10
f 123//61 189//61 165//61 47//61
f 23//61 98//61 189//61 123//61
f 98//33 50//33 164//33 189//33
f 96//62 190//62 108//62 10//62
f 47//61 165//61 190//61 96//61
f 165//33 79//33 163//33 190//33
f 9//5 61//5 65//5
f 61//5 9//5 64//5
f 71//27 228//27 33//27
f 5//7 73//7 19//7
f 211//24 67//24 29//24
f 3//24 67//24 13//24
f 71//27 5//27 16//27
f 3//24 29//24 67//24
f 9//5 65//5 3//5
f 53//27 16//27 70//27
f 215//5 65//5 61//5
f 16//27 53//27 71//27
f 210//24 68//24 57//24
f 70//27 227//27 53//27
f 35//7 1//7 74//7
f 125//9 23//9 123//9 200//9
f 57//24 13//24 67//24
f 73//7 230//7 49//7
f 114//63 18//63 124//63 201//63
f 29//5 3//5 65//5
f 13//24 57//24 68//24
f 158//60 202//60 160//60 72//60
f 41//64 121//64 202//64 158//64
f 121//65 6//65 122//65 202//65
f 124//61 203//61 159//61 48//61
f 18//66 94//66 203//66 124//66
f 94//67 41//67 158//67 203//67
f 97//61 204//61 98//61 23//61
f 48//61 159//61 204//61 97//61
f 159//33 72//33 157//33 204//33
f 33//27 5//27 71//27
f 129//12 24//12 127//12 205//12
f 64//5 221//5 61//5
f 19//7 49//7 74//7
f 112//68 15//68 128//68 206//68
f 206//27 70//27 31//27
f 5//7 33//7 73//7
f 152//69 207//69 154//69 69//69
f 39//70 119//70 207//70 152//70
f 119//71 8//71 120//71 207//71
f 128//72 208//72 153//72 52//72
f 15//73 92//73 208//73 128//73
f 92//74 39//74 152//74 208//74
f 100//56 209//56 101//56 24//56
f 52//75 153//75 209//75 100//75
f 153//76 69//76 151//76 209//76
f 133//15 25//15 131//15 210//15
f 1//5 35//5 64//5
f 74//7 231//7 35//7
f 67//24 224//24 57//24
f 110//77 12//77 132//77 211//77
f 13//24 68//24 7//24
f 221//5 137//5 61//5
f 146//50 212//50 148//50 66//50
f 37//78 117//78 212//78 146//78
f 117//79 4//79 118//79 212//79
f 132//51 213//51 147//51 56//51
f 12//80 90//80 213//80 132//80
f 90//81 37//81 146//81 213//81
f 103//51 214//51 104//51 25//51
f 56//51 147//51 214//51 103//51
f 147//26 66//26 145//26 214//26
f 137//18 26//18 135//18 215//18
f 68//24 225//24 31//24
f 88//82 10//82 136//82 216//82
f 230//7 125//7 49//7
f 140//83 217//83 142//83 63//83
f 27//84 83//84 217//84 140//84
f 83//85 2//85 116//85 217//85
f 136//86 218//86 141//86 60//86
f 10//87 108//87 218//87 136//87
f 108//88 27//88 140//88 218//88
f 106//46 219//46 107//46 26//46
f 60//89 141//89 219//89 106//89
f 141//90 63//90 139//90 219//90
f 139//44 220//44 138//44 62//44
f 63//91 142//91 220//91 139//91
f 142//92 36//92 89//92 220//92
f 216//5 143//5 64//5
f 35//5 88//5 216//5
f 143//93 60//93 106//93 221//93
f 215//5 144//5 65//5
f 61//5 137//5 215//5
f 144//94 59//94 105//94 222//94
f 145//50 223//50 134//50 58//50
f 66//50 148//50 223//50 145//50
f 148//16 38//16 91//16 223//16
f 211//24 149//24 67//24
f 29//24 110//24 211//24
f 149//15 56//15 103//15 224//15
f 210//24 150//24 68//24
f 57//24 133//24 210//24
f 150//15 55//15 102//15 225//15
f 151//54 226//54 130//54 54//54
f 69//95 154//95 226//95 151//95
f 154//96 40//96 93//96 226//96
f 206//27 155//27 70//27
f 31//27 112//27 206//27
f 155//97 52//97 100//97 227//97
f 205//27 156//27 71//27
f 53//27 129//27 205//27
f 156//98 51//98 99//98 228//98
f 157//60 229//60 126//60 50//60
f 72//60 160//60 229//60 157//60
f 160//10 42//10 95//10 229//10
f 201//7 161//7 73//7
f 33//7 114//7 201//7
f 161//9 48//9 97//9 230//9
f 200//7 162//7 74//7
f 49//7 125//7 200//7
f 162//9 47//9 96//9 231//9
f 64//5 143//5 221//5
f 201//7 73//7 33//7
f 70//27 16//27 7//27
f 200//7 74//7 49//7
f 163//99 235//99 83//99 27//99
f 79//60 166//60 235//60 163//60
f 166//10 34//10 87//10 235//10
f 167//100 236//100 121//100 41//100
f 80//101 170//101 236//101 167//101
f 170//102 32//102 86//102 236//102
f 171//103 237//103 119//103 39//103
f 81//50 174//50 237//50 171//50
f 174//16 30//16 85//16 237//16
f 175//104 238//104 117//104 37//104
f 82//105 178//105 238//105 175//105
f 178//106 28//106 84//106 238//106
f 227//27 129//27 53//27
f 19//7 74//7 1//7
f 205//27 71//27 53//27
f 228//27 114//27 33//27
usemtl Bottom
f 7//34 16//34 22//34 13//34
f 5//34 19//34 22//34 16//34
f 1//34 9//34 22//34 19//34
f 9//34 3//34 13//34 22//34
