# Blender 4.5.4 LTS
# www.blender.org
mtllib cube_bulge.mtl
o Cube
v -0.500000 -0.500000 0.500000
v -0.510229 0.500000 0.506307
v -0.500000 -0.500000 -0.500000
v -0.510229 0.500000 -0.506307
v 0.500000 -0.500000 0.500000
v 0.510229 0.500000 0.506307
v 0.500000 -0.500000 -0.500000
v 0.510229 0.500000 -0.506307
v -0.500000 -0.500000 0.000000
v -0.510229 0.000000 0.506307
v -0.514781 0.500000 0.000000
v -0.510229 0.000000 -0.506307
v 0.000000 -0.500000 -0.500000
v 0.000000 0.500000 -0.514781
v 0.510229 0.000000 -0.506307
v 0.500000 -0.500000 0.000000
v 0.514781 0.500000 0.000000
v 0.510229 0.000000 0.506307
v 0.000000 -0.500000 0.500000
v 0.000000 0.500000 0.514781
v 0.000000 0.500000 0.000000
v 0.000000 -0.500000 0.000000
v 0.000000 0.000000 0.514781
v 0.514781 0.000000 0.000000
v 0.000000 0.000000 -0.514781
v -0.514781 0.000000 0.000000
v -0.557624 0.250000 0.567826
v -0.514755 0.500000 -0.250000
v -0.500000 -0.250000 -0.500000
v 0.250000 0.500000 -0.514781
v 0.500000 -0.250000 -0.500000
v 0.514755 0.500000 0.250000
v 0.500000 -0.250000 0.500000
v -0.250000 0.500000 0.514781
v -0.500000 -0.250000 0.500000
v -0.514755 0.500000 0.250000
v -0.557624 0.250000 -0.567826
v -0.250000 0.500000 -0.514781
v 0.557624 0.250000 -0.567826
v 0.514755 0.500000 -0.250000
v 0.557624 0.250000 0.567826
v 0.250000 0.500000 0.514781
v 0.000000 0.500000 0.250000
v 0.000000 0.500000 -0.250000
v 0.250000 0.500000 0.000000
v -0.250000 0.500000 0.000000
v -0.250000 0.000000 0.514781
v 0.250000 0.000000 0.514781
v 0.000000 -0.250000 0.500000
v 0.000000 0.250000 0.600000
v 0.514755 0.000000 0.250000
v 0.514755 0.000000 -0.250000
v 0.500000 -0.250000 0.000000
v 0.600000 0.250000 0.000000
v 0.250000 0.000000 -0.514781
v -0.250000 0.000000 -0.514781
v 0.000000 -0.250000 -0.500000
v 0.000000 0.250000 -0.600000
v -0.514755 0.000000 -0.250000
v -0.514755 0.000000 0.250000
v -0.500000 -0.250000 0.000000
v -0.600000 0.250000 0.000000
v -0.600000 0.250000 0.256307
v -0.500000 -0.250000 0.250000
v -0.500000 -0.250000 -0.250000
v -0.251245 0.250000 -0.600000
v -0.250000 -0.250000 -0.500000
v 0.250000 -0.250000 -0.500000
v 0.600000 0.250000 -0.256307
v 0.500000 -0.250000 -0.250000
v 0.500000 -0.250000 0.250000
v 0.251245 0.250000 0.600000
v 0.250000 -0.250000 0.500000
v -0.250000 -0.250000 0.500000
v -0.250000 0.500000 -0.250000
v 0.250000 0.500000 -0.250000
v 0.250000 0.500000 0.250000
v -0.250000 0.500000 0.250000
v -0.251245 0.250000 0.600000
v 0.600000 0.250000 0.256307
v 0.251245 0.250000 -0.600000
v -0.600000 0.250000 -0.256307
v -0.544656 0.375000 0.544656
v -0.513566 0.500000 -0.376487
v 0.378093 0.500000 -0.514781
v 0.513566 0.500000 0.376487
v -0.378093 0.500000 0.514781
v -0.500000 -0.125000 0.500000
v -0.514781 0.500000 0.125000
v -0.544656 0.125000 -0.544656
v -0.125000 0.500000 -0.514781
v 0.544656 0.125000 -0.544656
v 0.514781 0.500000 -0.125000
v 0.544656 0.125000 0.544656
v 0.125000 0.500000 0.514781
v -0.378093 0.000000 0.514781
v 0.125000 0.000000 0.514781
v 0.000000 0.125000 0.567826
v 0.513566 0.000000 0.376487
v 0.514781 0.000000 -0.125000
v 0.567826 0.125000 0.000000
v 0.378093 0.000000 -0.514781
v -0.125000 0.000000 -0.514781
v 0.000000 0.125000 -0.567826
v -0.513566 0.000000 -0.376487
v -0.514781 0.000000 0.125000
v -0.567826 0.125000 0.000000
v -0.544656 0.125000 0.544656
v -0.514781 0.500000 -0.125000
v -0.500000 -0.125000 -0.500000
v 0.125000 0.500000 -0.514781
v 0.500000 -0.125000 -0.500000
v 0.514781 0.500000 0.125000
v 0.500000 -0.125000 0.500000
v -0.125000 0.500000 0.514781
v -0.513566 0.500000 0.376487
v -0.544656 0.375000 -0.544656
v -0.378093 0.500000 -0.514781
v 0.544656 0.375000 -0.544656
v 0.513566 0.500000 -0.376487
v 0.544656 0.375000 0.544656
v 0.378093 0.500000 0.514781
v -0.125000 0.000000 0.514781
v 0.378093 0.000000 0.514781
v 0.000000 -0.125000 0.500000
v 0.000000 0.375000 0.567826
v 0.514781 0.000000 0.125000
v 0.513566 0.000000 -0.376487
v 0.500000 -0.125000 0.000000
v 0.567826 0.375000 0.000000
v 0.125000 0.000000 -0.514781
v -0.378093 0.000000 -0.514781
v 0.000000 -0.125000 -0.500000
v 0.000000 0.375000 -0.567826
v -0.514781 0.000000 -0.125000
v -0.513566 0.000000 0.376487
v -0.500000 -0.125000 0.000000
v -0.567826 0.375000 0.000000
v -0.600000 0.250000 0.125000
v -0.600000 0.250000 0.419656
v -0.567786 0.125000 0.251487
v -0.567786 0.375000 0.251487
v -0.500000 -0.125000 0.250000
v -0.500000 -0.125000 -0.250000
v -0.125000 0.250000 -0.600000
v -0.401157 0.250000 -0.600000
v -0.250499 0.125000 -0.567826
v -0.250499 0.375000 -0.567826
v -0.250000 -0.125000 -0.500000
v 0.250000 -0.125000 -0.500000
v 0.600000 0.250000 -0.125000
v 0.600000 0.250000 -0.419656
v 0.567786 0.125000 -0.251487
v 0.567786 0.375000 -0.251487
v 0.500000 -0.125000 -0.250000
v 0.500000 -0.125000 0.250000
v 0.125000 0.250000 0.600000
v 0.401157 0.250000 0.600000
v 0.250499 0.125000 0.567826
v 0.250499 0.375000 0.567826
v 0.250000 -0.125000 0.500000
v -0.250000 -0.125000 0.500000
v -0.401157 0.250000 0.600000
v -0.125000 0.250000 0.600000
v -0.250499 0.125000 0.567826
v -0.250499 0.375000 0.567826
v 0.600000 0.250000 0.419656
v 0.600000 0.250000 0.125000
v 0.567786 0.125000 0.251487
v 0.567786 0.375000 0.251487
v 0.401157 0.250000 -0.600000
v 0.125000 0.250000 -0.600000
v 0.250499 0.125000 -0.567826
v 0.250499 0.375000 -0.567826
v -0.600000 0.250000 -0.419656
v -0.600000 0.250000 -0.125000
v -0.567786 0.125000 -0.251487
v -0.567786 0.375000 -0.251487
v -0.567826 0.375000 -0.125000
v -0.567826 0.125000 -0.125000
v -0.567315 0.125000 -0.402348
v 0.125000 0.375000 -0.567826
v 0.125000 0.125000 -0.567826
v 0.396730 0.125000 -0.567826
v 0.567826 0.375000 0.125000
v 0.567826 0.125000 0.125000
v 0.567315 0.125000 0.402348
v -0.125000 0.375000 0.567826
v -0.125000 0.125000 0.567826
v -0.396730 0.125000 0.567826
v -0.381307 0.500000 0.125000
v -0.125000 0.500000 0.381307
v 0.381307 0.500000 0.125000
v 0.380703 0.500000 0.381307
v 0.125000 0.500000 -0.381307
v 0.380703 0.500000 -0.381307
v 0.381307 0.500000 -0.125000
v -0.380703 0.500000 -0.381307
v -0.125000 0.500000 -0.381307
v -0.125000 -0.125000 0.500000
v 0.375000 -0.125000 0.500000
v 0.396730 0.375000 0.567826
v 0.396730 0.125000 0.567826
v 0.125000 0.125000 0.567826
v 0.500000 -0.125000 0.125000
v 0.500000 -0.125000 -0.375000
v 0.567315 0.375000 -0.402348
v 0.567315 0.125000 -0.402348
v 0.567826 0.125000 -0.125000
v 0.125000 -0.125000 -0.500000
v -0.375000 -0.125000 -0.500000
v -0.396730 0.375000 -0.567826
v -0.396730 0.125000 -0.567826
v -0.125000 0.125000 -0.567826
v -0.500000 -0.125000 -0.125000
v -0.500000 -0.125000 0.375000
v -0.567315 0.375000 0.402348
v -0.567315 0.125000 0.402348
v -0.567826 0.125000 0.125000
v -0.567826 0.375000 0.125000
v -0.500000 -0.125000 0.125000
v -0.500000 -0.125000 -0.375000
v -0.125000 0.375000 -0.567826
v -0.125000 -0.125000 -0.500000
v 0.375000 -0.125000 -0.500000
v 0.567826 0.375000 -0.125000
v 0.500000 -0.125000 -0.125000
v 0.500000 -0.125000 0.375000
v 0.125000 0.375000 0.567826
v 0.125000 -0.125000 0.500000
v -0.375000 -0.125000 0.500000
v -0.381307 0.500000 -0.125000
v 0.125000 0.500000 0.381307
v -0.380703 0.500000 0.381307
v -0.396730 0.375000 0.567826
v 0.567315 0.375000 0.402348
v 0.396730 0.375000 -0.567826
v -0.567315 0.375000 -0.402348
vn -0.9503 0.3018 -0.0767
vn -0.9260 0.3752 -0.0425
vn -0.9319 0.3516 -0.0890
vn -0.9489 0.2720 -0.1603
vn 0.0718 0.3064 -0.9492
vn 0.0483 0.3775 -0.9247
vn 0.1047 0.3610 -0.9267
vn 0.1432 0.2872 -0.9471
vn 0.9503 0.3018 0.0767
vn 0.9260 0.3752 0.0425
vn 0.9319 0.3516 0.0890
vn 0.9489 0.2720 0.1603
vn -0.0718 0.3064 0.9492
vn -0.0483 0.3775 0.9247
vn -0.1047 0.3610 0.9267
vn -0.1432 0.2872 0.9471
vn -1.0000 -0.0000 -0.0000
vn -0.9986 -0.0520 -0.0044
vn -0.0000 1.0000 -0.0000
vn -0.9986 -0.0520 0.0044
vn -0.0081 -0.0510 0.9987
vn -0.0168 -0.0440 0.9989
vn -0.0000 -0.0000 1.0000
vn -0.0329 -0.2426 0.9696
vn -0.0730 -0.2391 0.9682
vn -0.0000 -0.0588 0.9983
vn -0.0000 -0.2566 0.9665
vn -0.0000 0.3208 0.9471
vn -0.0000 0.3906 0.9205
vn 0.9986 -0.0520 0.0044
vn 0.9699 -0.2421 0.0260
vn 0.9697 -0.2381 0.0553
vn 0.9988 -0.0484 0.0066
vn 0.9983 -0.0588 -0.0000
vn 0.9665 -0.2566 -0.0001
vn 0.9665 -0.2566 -0.0000
vn 0.9471 0.3209 -0.0001
vn 0.9206 0.3906 -0.0001
vn 0.9205 0.3906 -0.0000
vn 0.9471 0.3208 -0.0000
vn 0.0081 -0.0510 -0.9987
vn 0.0329 -0.2426 -0.9696
vn 0.0730 -0.2391 -0.9682
vn 0.0168 -0.0440 -0.9989
vn -0.0000 -0.0588 -0.9983
vn -0.0000 -0.2566 -0.9665
vn -0.0000 0.3208 -0.9471
vn -0.0000 0.3906 -0.9205
vn -0.9699 -0.2421 -0.0260
vn -0.9697 -0.2381 -0.0553
vn -0.9988 -0.0484 -0.0066
vn -0.9983 -0.0588 -0.0000
vn -0.9665 -0.2566 0.0001
vn -0.9665 -0.2566 -0.0000
vn -0.9471 0.3209 0.0001
vn -0.9206 0.3906 0.0001
vn -0.9205 0.3906 -0.0000
vn -0.9471 0.3208 -0.0000
vn -0.9471 -0.3209 0.0001
vn -1.0000 -0.0000 0.0001
vn -0.9471 -0.3208 -0.0000
vn -0.9503 -0.3018 0.0767
vn -0.9930 -0.0000 0.1180
vn -1.0000 -0.0000 0.0008
vn -0.9467 -0.3220 0.0018
vn -0.9503 0.3018 0.0767
vn -0.9260 0.3752 0.0425
vn -0.9200 0.3919 0.0029
vn -0.9467 0.3220 0.0018
vn -0.9983 -0.0576 -0.0012
vn -0.9699 -0.2421 0.0260
vn -0.9666 -0.2562 0.0027
vn -0.9983 -0.0576 0.0012
vn -0.0000 -0.0000 -1.0000
vn -0.9665 -0.2566 -0.0001
vn -0.9666 -0.2562 -0.0027
vn -0.0000 -0.3208 -0.9471
vn -0.0718 -0.3064 -0.9492
vn -0.0906 -0.0000 -0.9959
vn -0.0718 0.3064 -0.9492
vn -0.0483 0.3775 -0.9247
vn -0.0081 -0.0510 -0.9987
vn -0.0329 -0.2426 -0.9696
vn 1.0000 -0.0000 -0.0000
vn 0.9983 -0.0576 -0.0012
vn 0.9471 -0.3209 -0.0001
vn 1.0000 -0.0000 -0.0001
vn 0.9471 -0.3208 -0.0000
vn 0.9503 -0.3018 -0.0767
vn 0.9930 -0.0000 -0.1180
vn 1.0000 -0.0000 -0.0008
vn 0.9467 -0.3220 -0.0018
vn 0.9503 0.3018 -0.0767
vn 0.9260 0.3752 -0.0425
vn 0.9200 0.3919 -0.0029
vn 0.9467 0.3220 -0.0018
vn 0.9983 -0.0576 0.0012
vn 0.9986 -0.0520 -0.0044
vn 0.9699 -0.2421 -0.0260
vn 0.9666 -0.2562 -0.0027
vn 0.9665 -0.2566 0.0001
vn 0.9666 -0.2562 0.0027
vn -0.0000 -0.3208 0.9471
vn 0.0718 -0.3064 0.9492
vn 0.0906 -0.0000 0.9959
vn 0.0718 0.3064 0.9492
vn 0.0483 0.3775 0.9247
vn 0.0081 -0.0510 0.9987
vn 0.0329 -0.2426 0.9696
vn -0.0000 -1.0000 -0.0000
vn -0.0718 -0.3064 0.9492
vn -0.0906 -0.0000 0.9959
vn -0.1789 -0.0000 0.9839
vn -0.1432 -0.2872 0.9471
vn 0.9503 -0.3018 0.0767
vn 0.9930 -0.0000 0.1180
vn 0.9758 -0.0000 0.2185
vn 0.9489 -0.2720 0.1603
vn 0.9471 -0.3209 0.0001
vn 1.0000 -0.0000 0.0001
vn 1.0000 -0.0000 0.0008
vn 0.9467 -0.3220 0.0018
vn 0.9471 0.3209 0.0001
vn 0.9206 0.3906 0.0001
vn 0.9200 0.3919 0.0029
vn 0.9467 0.3220 0.0018
vn 0.0718 -0.3064 -0.9492
vn 0.0906 -0.0000 -0.9959
vn 0.1789 -0.0000 -0.9839
vn 0.1432 -0.2872 -0.9471
vn -0.9503 -0.3018 -0.0767
vn -0.9930 -0.0000 -0.1180
vn -0.9758 -0.0000 -0.2185
vn -0.9489 -0.2720 -0.1603
vn -0.9471 -0.3209 -0.0001
vn -1.0000 -0.0000 -0.0001
vn -1.0000 -0.0000 -0.0008
vn -0.9467 -0.3220 -0.0018
vn -0.9471 0.3209 -0.0001
vn -0.9206 0.3906 -0.0001
vn -0.9200 0.3919 -0.0029
vn -0.9467 0.3220 -0.0018
vn 0.0168 -0.0440 0.9989
vn 0.0730 -0.2391 0.9682
vn 0.1789 -0.0000 0.9839
vn 0.1432 0.2872 0.9471
vn 0.1047 0.3610 0.9267
vn 0.1432 -0.2872 0.9471
vn 0.9988 -0.0484 -0.0066
vn 0.9697 -0.2381 -0.0553
vn 0.9758 -0.0000 -0.2185
vn 0.9489 0.2720 -0.1603
vn 0.9319 0.3516 -0.0890
vn 0.9489 -0.2720 -0.1603
vn -0.0168 -0.0440 -0.9989
vn -0.0730 -0.2391 -0.9682
vn -0.1789 -0.0000 -0.9839
vn -0.1432 0.2872 -0.9471
vn -0.1047 0.3610 -0.9267
vn -0.1432 -0.2872 -0.9471
vn -0.9988 -0.0484 0.0066
vn -0.9697 -0.2381 0.0553
vn -0.9758 -0.0000 0.2185
vn -0.9489 0.2720 0.1603
vn -0.9319 0.3516 0.0890
vn -0.9489 -0.2720 0.1603
s 1
usemtl Top
f 234//19 116//19 2//19 87//19
f 93//19 197//19 17//19
f 192//19 115//19 20//19
f 198//19 84//19 28//19
f 28//19 232//19 75//19 198//19
f 93//19 40//19 197//19
f 14//19 199//19 44//19 195//19
f 77//19 233//19 42//19 194//19
f 86//19 32//19 194//19
f 78//19 234//19 34//19 192//19
f 191//19 89//19 36//19
f 36//19 234//19 78//19 191//19
f 191//19 78//19 46//19
f 191//19 46//19 232//19 11//19
f 45//19 76//19 44//19 21//19
f 43//19 21//19 46//19 78//19
f 195//19 44//19 76//19
f 192//19 20//19 233//19 43//19
f 28//19 109//19 232//19
f 199//19 75//19 44//19
f 75//19 232//19 46//19
f 14//19 91//19 199//19
f 193//19 17//19 197//19 45//19
f 91//19 38//19 199//19
f 86//19 194//19 122//19 6//19
f 115//19 192//19 34//19
f 195//19 76//19 196//19 30//19
f 8//19 85//19 196//19 120//19
f 77//19 194//19 32//19 193//19
f 122//19 194//19 42//19
f 30//19 111//19 195//19
f 198//19 75//19 199//19 38//19
f 118//19 4//19 84//19 198//19
f 11//19 89//19 191//19
f 75//19 46//19 21//19 44//19
f 38//19 118//19 198//19
f 197//19 76//19 45//19
f 77//19 45//19 21//19 43//19
f 36//19 116//19 234//19
f 233//19 95//19 42//19
f 95//19 233//19 20//19
f 85//19 30//19 196//19
f 76//19 197//19 40//19 196//19
f 113//19 17//19 193//19
f 77//19 193//19 45//19
f 113//19 193//19 32//19
f 120//19 196//19 40//19
f 232//19 109//19 11//19
f 78//19 192//19 43//19
f 234//19 87//19 34//19
f 43//19 233//19 77//19
f 111//19 14//19 195//19
usemtl Sides
f 238//1 84//2 4//3 117//4
f 237//5 85//6 8//7 119//8
f 236//9 86//10 6//11 121//12
f 235//13 87//14 2//15 83//16
f 65//17 222//18 29//17
f 1//17 64//17 9//17
f 216//20 64//17 35//17
f 231//21 88//22 35//23
f 231//21 96//24 10//25 88//22
f 230//26 97//27 23//27 125//26
f 229//28 95//29 20//29 126//28
f 228//30 99//31 18//32 114//33
f 227//34 100//35 24//36 129//34
f 226//37 93//38 17//39 130//40
f 225//41 102//42 15//43 112//44
f 224//45 103//46 25//46 133//45
f 223//47 91//48 14//48 134//47
f 222//18 105//49 12//50 110//51
f 221//52 106//53 26//54 137//52
f 220//55 89//56 11//57 138//58
f 219//59 139//60 62//17 107//61
f 218//62 140//63 63//64 141//65
f 217//66 116//67 36//68 142//69
f 222//18 110//51 29//17
f 65//17 144//70 222//18
f 216//20 136//71 60//72 143//73
f 67//74 149//45 224//45
f 215//52 135//75 59//76 144//70
f 214//77 145//74 58//74 104//77
f 213//78 146//79 66//74 147//77
f 212//80 118//81 38//48 148//47
f 225//41 112//44 31//74
f 68//74 150//45 225//41
f 211//82 132//83 56//46 149//45
f 70//84 155//85 227//34
f 210//45 131//46 55//46 150//45
f 209//86 151//87 54//84 101//88
f 208//89 152//90 69//91 153//92
f 207//93 120//94 40//95 154//96
f 71//84 156//97 228//30
f 206//98 128//99 52//100 155//85
f 49//23 19//23 73//23
f 73//23 161//26 230//26
f 205//34 127//101 51//102 156//97
f 204//103 157//23 50//23 98//103
f 203//104 158//105 72//23 159//103
f 202//106 122//107 42//29 160//28
f 7//84 31//84 70//84
f 74//23 162//26 231//21
f 201//108 124//109 48//27 161//26
f 200//26 123//27 47//27 162//26
f 224//45 133//45 57//74
f 31//74 7//74 68//74
f 190//111 163//112 27//113 108//114
f 189//103 164//23 79//23 165//103
f 188//28 115//29 34//29 166//28
f 187//115 167//116 41//117 94//118
f 186//119 168//120 80//121 169//122
f 185//123 113//124 32//125 170//126
f 184//127 171//128 39//129 92//130
f 183//77 172//74 81//74 173//77
f 182//47 111//48 30//48 174//47
f 181//131 175//132 37//133 90//134
f 180//135 176//136 82//137 177//138
f 179//139 109//140 28//141 178//142
f 176//136 179//139 178//142 82//137
f 62//17 138//58 179//139 176//136
f 138//58 11//57 109//140 179//139
f 135//75 180//135 177//138 59//76
f 26//54 107//61 180//135 135//75
f 107//61 62//17 176//136 180//135
f 105//49 181//131 90//134 12//50
f 59//76 177//138 181//131 105//49
f 177//138 82//137 175//132 181//131
f 172//74 182//47 174//47 81//74
f 58//74 134//47 182//47 172//74
f 134//47 14//48 111//48 182//47
f 131//46 183//77 173//77 55//46
f 25//46 104//77 183//77 131//46
f 104//77 58//74 172//74 183//77
f 102//42 184//127 92//130 15//43
f 55//46 173//77 184//127 102//42
f 173//77 81//74 171//128 184//127
f 168//120 185//123 170//126 80//121
f 54//84 130//40 185//123 168//120
f 130//40 17//39 113//124 185//123
f 127//101 186//119 169//122 51//102
f 24//36 101//88 186//119 127//101
f 101//88 54//84 168//120 186//119
f 99//31 187//115 94//118 18//32
f 51//102 169//122 187//115 99//31
f 169//122 80//121 167//116 187//115
f 164//23 188//28 166//28 79//23
f 50//23 126//28 188//28 164//23
f 126//28 20//29 115//29 188//28
f 123//27 189//103 165//103 47//27
f 23//27 98//103 189//103 123//27
f 98//103 50//23 164//23 189//103
f 96//24 190//111 108//114 10//25
f 47//27 165//103 190//111 96//24
f 165//103 79//23 163//112 190//111
f 9//17 61//17 65//17
f 61//17 9//17 64//17
f 71//84 228//30 33//84
f 5//23 73//23 19//23
f 211//82 67//74 29//74
f 3//74 67//74 13//74
f 71//84 5//84 16//84
f 3//74 29//74 67//74
f 9//17 65//17 3//17
f 53//84 16//84 70//84
f 215//52 65//17 61//17
f 16//84 53//84 71//84
f 210//45 68//74 57//74
f 70//84 227//34 53//84
f 35//23 1//23 74//23
f 125//26 23//27 123//27 200//26
f 57//74 13//74 67//74
f 73//23 230//26 49//23
f 114//143 18//144 124//109 201//108
f 29//17 3//17 65//17
f 13//74 57//74 68//74
f 158//105 202//106 160//28 72//23
f 41//145 121//146 202//106 158//105
f 121//146 6//147 122//107 202//106
f 124//109 203//104 159//103 48//27
f 18//144 94//148 203//104 124//109
f 94//148 41//145 158//105 203//104
f 97//27 204//103 98//103 23//27
f 48//27 159//103 204//103 97//27
f 159//103 72//23 157//23 204//103
f 33//84 5//84 71//84
f 129//34 24//36 127//101 205//34
f 64//17 221//52 61//17
f 19//23 49//23 74//23
f 112//149 15//150 128//99 206//98
f 206//98 70//84 31//84
f 5//23 33//23 73//23
f 152//90 207//93 154//96 69//91
f 39//151 119//152 207//93 152//90
f 119//152 8//153 120//94 207//93
f 128//99 208//89 153//92 52//100
f 15//150 92//154 208//89 128//99
f 92//154 39//151 152//90 208//89
f 100//35 209//86 101//88 24//36
f 52//100 153//92 209//86 100//35
f 153//92 69//91 151//87 209//86
f 133//45 25//46 131//46 210//45
f 1//17 35//17 64//17
f 74//23 231//21 35//23
f 67//74 224//45 57//74
f 110//155 12//156 132//83 211//82
f 13//74 68//74 7//74
f 221//52 137//52 61//17
f 146//79 212//80 148//47 66//74
f 37//157 117//158 212//80 146//79
f 117//158 4//159 118//81 212//80
f 132//83 213//78 147//77 56//46
f 12//156 90//160 213//78 132//83
f 90//160 37//157 146//79 213//78
f 103//46 214//77 104//77 25//46
f 56//46 147//77 214//77 103//46
f 147//77 66//74 145//74 214//77
f 137//52 26//54 135//75 215//52
f 68//74 225//41 31//74
f 88//161 10//162 136//71 216//20
f 230//26 125//26 49//23
f 140//63 217//66 142//69 63//64
f 27//163 83//164 217//66 140//63
f 83//164 2//165 116//67 217//66
f 136//71 218//62 141//65 60//72
f 10//162 108//166 218//62 136//71
f 108//166 27//163 140//63 218//62
f 106//53 219//59 107//61 26//54
f 60//72 141//65 219//59 106//53
f 141//65 63//64 139//60 219//59
f 139//60 220//55 138//58 62//17
f 63//64 142//69 220//55 139//60
f 142//69 36//68 89//56 220//55
f 216//20 143//73 64//17
f 35//17 88//161 216//20
f 143//73 60//72 106//53 221//52
f 215//52 144//70 65//17
f 61//17 137//52 215//52
f 144//70 59//76 105//49 222//18
f 145//74 223//47 134//47 58//74
f 66//74 148//47 223//47 145//74
f 148//47 38//48 91//48 223//47
f 211//82 149//45 67//74
f 29//74 110//155 211//82
f 149//45 56//46 103//46 224//45
f 210//45 150//45 68//74
f 57//74 133//45 210//45
f 150//45 55//46 102//42 225//41
f 151//87 226//37 130//40 54//84
f 69//91 154//96 226//37 151//87
f 154//96 40//95 93//38 226//37
f 206//98 155//85 70//84
f 31//84 112//149 206//98
f 155//85 52//100 100//35 227//34
f 205//34 156//97 71//84
f 53//84 129//34 205//34
f 156//97 51//102 99//31 228//30
f 157//23 229//28 126//28 50//23
f 72//23 160//28 229//28 157//23
f 160//28 42//29 95//29 229//28
f 201//108 161//26 73//23
f 33//23 114//143 201//108
f 161//26 48//27 97//27 230//26
f 200//26 162//26 74//23
f 49//23 125//26 200//26
f 162//26 47//27 96//24 231//21
f 64//17 143//73 221//52
f 201//108 73//23 33//23
f 70//84 16//84 7//84
f 200//26 74//23 49//23
f 163//112 235//13 83//16 27//113
f 79//23 166//28 235//13 163//112
f 166//28 34//29 87//14 235//13
f 167//116 236//9 121//12 41//117
f 80//121 170//126 236//9 167//116
f 170//126 32//125 86//10 236//9
f 171//128 237//5 119//8 39//129
f 81//74 174//47 237//5 171//128
f 174//47 30//48 85//6 237//5
f 175//132 238//1 117//4 37//133
f 82//137 178//142 238//1 175//132
f 178//142 28//141 84//2 238//1
f 227//34 129//34 53//84
f 19//23 74//23 1//23
f 205//34 71//84 53//84
f 228//30 114//33 33//84
usemtl Bottom
f 7//110 16//110 22//110 13//110
f 5//110 19//110 22//110 16//110
f 1//110 9//110 22//110 19//110
f 9//110 3//110 13//110 22//110
