# Blender 5.0.1
# www.blender.org
mtllib cube_bulge.mtl
o Cube
v -0.500000 -0.500000 0.500000
v -0.508812 0.499145 0.505258
v -0.500000 -0.500000 -0.500000
v -0.508812 0.499145 -0.505258
v 0.500000 -0.500000 0.500000
v 0.508812 0.499145 0.505258
v 0.500000 -0.500000 -0.500000
v 0.508812 0.499145 -0.505258
v -0.509386 0.000578 0.506033
v -0.514781 0.500000 0.000000
v -0.509386 0.000578 -0.506033
v 0.000000 0.500000 -0.514781
v 0.509386 0.000578 -0.506033
v 0.514781 0.500000 0.000000
v 0.509386 0.000578 0.506033
v 0.000000 0.500000 0.514781
v 0.000000 0.000000 0.514781
v 0.514781 0.000000 0.000000
v 0.000000 0.000000 -0.514781
v -0.514781 0.000000 0.000000
v -0.559875 0.250000 0.569151
v -0.514693 0.499974 -0.250000
v -0.500000 -0.250000 -0.500000
v 0.250000 0.500000 -0.514781
v 0.500000 -0.250000 -0.500000
v 0.514693 0.499974 0.250000
v 0.500000 -0.250000 0.500000
v -0.250000 0.500000 0.514781
v -0.500000 -0.250000 0.500000
v -0.514693 0.499974 0.250000
v -0.559875 0.250000 -0.569151
v -0.250000 0.500000 -0.514781
v 0.559875 0.250000 -0.569151
v 0.514693 0.499974 -0.250000
v 0.559875 0.250000 0.569151
v 0.250000 0.500000 0.514781
v -0.250000 0.000000 0.514781
v 0.250000 0.000000 0.514781
v 0.000000 0.250000 0.600000
v 0.514637 0.000028 0.249999
v 0.514637 0.000028 -0.249999
v 0.600000 0.250000 0.000000
v 0.250000 0.000000 -0.514781
v -0.250000 0.000000 -0.514781
v 0.000000 0.250000 -0.600000
v -0.514637 0.000028 -0.249999
v -0.514637 0.000028 0.249999
v -0.600000 0.250000 0.000000
v -0.600053 0.250000 0.256307
v -0.251245 0.250000 -0.600000
v 0.600053 0.250000 -0.256307
v 0.251245 0.250000 0.600000
v -0.251245 0.250000 0.600000
v 0.600053 0.250000 0.256307
v 0.251245 0.250000 -0.600000
v -0.600053 0.250000 -0.256307
v -0.544593 0.375312 0.544780
v -0.514939 0.500521 -0.376613
v 0.378197 0.500360 -0.515705
v 0.514939 0.500521 0.376613
v -0.378197 0.500360 0.515705
v -0.499780 -0.124937 0.499487
v -0.514781 0.500000 0.125000
v -0.544593 0.124688 -0.544780
v -0.125000 0.500000 -0.514781
v 0.544593 0.124688 -0.544780
v 0.514781 0.500000 -0.125000
v 0.544593 0.124688 0.544780
v 0.125000 0.500000 0.514781
v -0.378154 -0.000226 0.514964
v 0.125000 0.000000 0.514781
v 0.000000 0.125000 0.567826
v 0.514466 -0.000380 0.376579
v 0.514781 0.000000 -0.125000
v 0.567826 0.125000 0.000000
v 0.378154 -0.000226 -0.514964
v -0.125000 0.000000 -0.514781
v 0.000000 0.125000 -0.567826
v -0.514466 -0.000380 -0.376579
v -0.514781 0.000000 0.125000
v -0.567826 0.125000 0.000000
v -0.544593 0.124688 0.544780
v -0.514781 0.500000 -0.125000
v -0.499780 -0.124937 -0.499487
v 0.125000 0.500000 -0.514781
v 0.499780 -0.124937 -0.499487
v 0.514781 0.500000 0.125000
v 0.499780 -0.124937 0.499487
v -0.125000 0.500000 0.514781
v -0.514939 0.500521 0.376613
v -0.544593 0.375312 -0.544780
v -0.378197 0.500360 -0.515705
v 0.544593 0.375312 -0.544780
v 0.514939 0.500521 -0.376613
v 0.544593 0.375312 0.544780
v 0.378197 0.500360 0.515705
v -0.125000 0.000000 0.514781
v 0.378154 -0.000226 0.514964
v 0.000000 -0.125000 0.500000
v 0.000000 0.375000 0.567826
v 0.514781 0.000000 0.125000
v 0.514466 -0.000380 -0.376579
v 0.500000 -0.125000 0.000000
v 0.567826 0.375000 0.000000
v 0.125000 0.000000 -0.514781
v -0.378154 -0.000226 -0.514964
v 0.000000 -0.125000 -0.500000
v 0.000000 0.375000 -0.567826
v -0.514781 0.000000 -0.125000
v -0.514466 -0.000380 0.376579
v -0.500000 -0.125000 0.000000
v -0.567826 0.375000 0.000000
v -0.600000 0.250000 0.125000
v -0.597847 0.250000 0.419187
v -0.567806 0.124987 0.251487
v -0.567806 0.375013 0.251487
v -0.500143 -0.125016 0.250001
v -0.500143 -0.125016 -0.250001
v -0.125000 0.250000 -0.600000
v -0.401001 0.250000 -0.599144
v -0.250499 0.125000 -0.567826
v -0.250499 0.375000 -0.567826
v -0.250000 -0.125000 -0.500000
v 0.250000 -0.125000 -0.500000
v 0.600000 0.250000 -0.125000
v 0.597847 0.250000 -0.419187
v 0.567806 0.124987 -0.251487
v 0.567806 0.375013 -0.251487
v 0.500143 -0.125016 -0.250001
v 0.500143 -0.125016 0.250001
v 0.125000 0.250000 0.600000
v 0.401001 0.250000 0.599144
v 0.250499 0.125000 0.567826
v 0.250499 0.375000 0.567826
v 0.250000 -0.125000 0.500000
v -0.250000 -0.125000 0.500000
v -0.401001 0.250000 0.599144
v -0.125000 0.250000 0.600000
v -0.250499 0.125000 0.567826
v -0.250499 0.375000 0.567826
v 0.597847 0.250000 0.419187
v 0.600000 0.250000 0.125000
v 0.567806 0.124987 0.251487
v 0.567806 0.375013 0.251487
v 0.401001 0.250000 -0.599144
v 0.125000 0.250000 -0.600000
v 0.250499 0.125000 -0.567826
v 0.250499 0.375000 -0.567826
v -0.597847 0.250000 -0.419187
v -0.600000 0.250000 -0.125000
v -0.567806 0.124987 -0.251487
v -0.567806 0.375013 -0.251487
v -0.567826 0.375000 -0.125000
v -0.567826 0.125000 -0.125000
v -0.567361 0.125154 -0.402489
v 0.125000 0.375000 -0.567826
v 0.125000 0.125000 -0.567826
v 0.396729 0.125170 -0.567561
v 0.567826 0.375000 0.125000
v 0.567826 0.125000 0.125000
v 0.567361 0.125154 0.402489
v -0.125000 0.375000 0.567826
v -0.125000 0.125000 0.567826
v -0.396729 0.125170 0.567561
v -0.125000 -0.125000 0.500000
v 0.375034 -0.125088 0.501021
v 0.396729 0.374830 0.567561
v 0.396729 0.125170 0.567561
v 0.125000 0.125000 0.567826
v 0.500000 -0.125000 0.125000
v 0.500260 -0.125022 -0.375005
v 0.567361 0.374846 -0.402489
v 0.567361 0.125154 -0.402489
v 0.567826 0.125000 -0.125000
v 0.125000 -0.125000 -0.500000
v -0.375034 -0.125088 -0.501021
v -0.396729 0.374830 -0.567561
v -0.396729 0.125170 -0.567561
v -0.125000 0.125000 -0.567826
v -0.500000 -0.125000 -0.125000
v -0.500260 -0.125022 0.375005
v -0.567361 0.374846 0.402489
v -0.567361 0.125154 0.402489
v -0.567826 0.125000 0.125000
v -0.567826 0.375000 0.125000
v -0.500000 -0.125000 0.125000
v -0.500260 -0.125022 -0.375005
v -0.125000 0.375000 -0.567826
v -0.125000 -0.125000 -0.500000
v 0.375034 -0.125088 -0.501021
v 0.567826 0.375000 -0.125000
v 0.500000 -0.125000 -0.125000
v 0.500260 -0.125022 0.375005
v 0.125000 0.375000 0.567826
v 0.125000 -0.125000 0.500000
v -0.375034 -0.125088 0.501021
v -0.396729 0.374830 0.567561
v 0.567361 0.374846 0.402489
v 0.396729 0.374830 -0.567561
v -0.567361 0.374846 -0.402489
vn -0.9511 0.2991 -0.0770
vn -0.9264 0.3739 -0.0445
vn -0.9295 0.3549 -0.1003
vn -0.9493 0.2725 -0.1568
vn 0.0715 0.3061 -0.9493
vn 0.0500 0.3762 -0.9252
vn 0.1113 0.3632 -0.9250
vn 0.1411 0.2894 -0.9468
vn 0.9511 0.2991 0.0770
vn 0.9264 0.3739 0.0445
vn 0.9295 0.3549 0.1003
vn 0.9493 0.2725 0.1568
vn -0.0715 0.3061 0.9493
vn -0.0500 0.3762 0.9252
vn -0.1113 0.3632 0.9250
vn -0.1411 0.2894 0.9468
vn -0.0177 -0.0991 0.9949
vn -0.0340 -0.2407 0.9700
vn -0.0774 -0.2391 0.9679
vn -0.0410 -0.0836 0.9957
vn -0.0000 -0.1174 0.9931
vn -0.0000 -0.2566 0.9665
vn -0.0000 0.3208 0.9471
vn -0.0000 0.3906 0.9205
vn 0.9944 -0.1049 0.0110
vn 0.9699 -0.2418 0.0276
vn 0.9687 -0.2398 0.0635
vn 0.9952 -0.0954 0.0222
vn 0.9931 -0.1169 -0.0000
vn 0.9666 -0.2565 -0.0002
vn 0.9665 -0.2566 -0.0000
vn 0.9931 -0.1174 -0.0000
vn 0.9471 0.3210 -0.0001
vn 0.9205 0.3908 -0.0002
vn 0.9205 0.3906 -0.0000
vn 0.9471 0.3208 -0.0000
vn 0.0177 -0.0991 -0.9949
vn 0.0340 -0.2407 -0.9700
vn 0.0774 -0.2391 -0.9679
vn 0.0410 -0.0836 -0.9957
vn -0.0000 -0.1174 -0.9931
vn -0.0000 -0.2566 -0.9665
vn -0.0000 0.3208 -0.9471
vn -0.0000 0.3906 -0.9205
vn -0.9944 -0.1049 -0.0110
vn -0.9699 -0.2418 -0.0276
vn -0.9687 -0.2398 -0.0635
vn -0.9952 -0.0954 -0.0222
vn -0.9931 -0.1169 -0.0000
vn -0.9666 -0.2565 0.0002
vn -0.9665 -0.2566 -0.0000
vn -0.9931 -0.1174 -0.0000
vn -0.9471 0.3210 0.0001
vn -0.9205 0.3908 0.0002
vn -0.9205 0.3906 -0.0000
vn -0.9471 0.3208 -0.0000
vn -0.9471 -0.3210 0.0001
vn -1.0000 -0.0000 -0.0001
vn -1.0000 -0.0000 -0.0000
vn -0.9471 -0.3208 -0.0000
vn -0.9512 -0.2991 0.0762
vn -0.9936 -0.0000 0.1129
vn -1.0000 -0.0000 0.0043
vn -0.9475 -0.3197 0.0026
vn -0.9511 0.2991 0.0770
vn -0.9264 0.3739 0.0445
vn -0.9210 0.3895 0.0003
vn -0.9477 0.3191 0.0021
vn -0.9944 -0.1049 0.0110
vn -0.9699 -0.2418 0.0276
vn -0.9668 -0.2557 0.0006
vn -0.9933 -0.1152 -0.0000
vn -0.9666 -0.2565 -0.0002
vn -0.9668 -0.2557 -0.0006
vn -0.0000 -0.3208 -0.9471
vn -0.0000 -0.0000 -1.0000
vn -0.0706 -0.3064 -0.9493
vn -0.0876 -0.0000 -0.9962
vn -0.0020 -0.0000 -1.0000
vn -0.0010 -0.3199 -0.9475
vn -0.0715 0.3061 -0.9493
vn -0.0500 0.3762 -0.9252
vn 0.0012 0.3884 -0.9215
vn -0.0003 0.3192 -0.9477
vn -0.0177 -0.0991 -0.9949
vn -0.0340 -0.2407 -0.9700
vn 0.0012 -0.2554 -0.9668
vn 0.0024 -0.1158 -0.9933
vn -0.0012 -0.2554 -0.9668
vn -0.0024 -0.1158 -0.9933
vn 0.9471 -0.3210 -0.0001
vn 1.0000 -0.0000 0.0001
vn 1.0000 -0.0000 -0.0000
vn 0.9471 -0.3208 -0.0000
vn 0.9512 -0.2991 -0.0762
vn 0.9936 -0.0000 -0.1129
vn 1.0000 -0.0000 -0.0043
vn 0.9475 -0.3197 -0.0026
vn 0.9511 0.2991 -0.0770
vn 0.9264 0.3739 -0.0445
vn 0.9210 0.3895 -0.0003
vn 0.9477 0.3191 -0.0021
vn 0.9944 -0.1049 -0.0110
vn 0.9699 -0.2418 -0.0276
vn 0.9668 -0.2557 -0.0006
vn 0.9933 -0.1152 -0.0000
vn 0.9666 -0.2565 0.0002
vn 0.9668 -0.2557 0.0006
vn -0.0000 -0.3208 0.9471
vn -0.0000 -0.0000 1.0000
vn 0.0706 -0.3064 0.9493
vn 0.0876 -0.0000 0.9962
vn 0.0020 -0.0000 1.0000
vn 0.0010 -0.3199 0.9475
vn 0.0715 0.3061 0.9493
vn 0.0500 0.3762 0.9252
vn -0.0012 0.3884 0.9215
vn 0.0003 0.3192 0.9477
vn 0.0177 -0.0991 0.9949
vn 0.0340 -0.2407 0.9700
vn -0.0012 -0.2554 0.9668
vn -0.0024 -0.1158 0.9933
vn 0.0012 -0.2554 0.9668
vn 0.0024 -0.1158 0.9933
vn -0.0706 -0.3064 0.9493
vn -0.0876 -0.0000 0.9962
vn -0.1692 -0.0000 0.9856
vn -0.1385 -0.2889 0.9473
vn -0.0020 -0.0000 1.0000
vn -0.0010 -0.3199 0.9475
vn 0.0012 0.3884 0.9215
vn -0.0003 0.3192 0.9477
vn 0.9512 -0.2991 0.0762
vn 0.9936 -0.0000 0.1129
vn 0.9791 -0.0000 0.2032
vn 0.9498 -0.2720 0.1548
vn 0.9471 -0.3210 0.0001
vn 1.0000 -0.0000 -0.0001
vn 1.0000 -0.0000 0.0043
vn 0.9475 -0.3197 0.0026
vn 0.9471 0.3210 0.0001
vn 0.9205 0.3908 0.0002
vn 0.9210 0.3895 0.0003
vn 0.9477 0.3191 0.0021
vn 0.0706 -0.3064 -0.9493
vn 0.0876 -0.0000 -0.9962
vn 0.1692 -0.0000 -0.9856
vn 0.1385 -0.2889 -0.9473
vn 0.0020 -0.0000 -1.0000
vn 0.0010 -0.3199 -0.9475
vn -0.0012 0.3884 -0.9215
vn 0.0003 0.3192 -0.9477
vn -0.9512 -0.2991 -0.0762
vn -0.9936 -0.0000 -0.1129
vn -0.9791 -0.0000 -0.2032
vn -0.9498 -0.2720 -0.1548
vn -0.9471 -0.3210 -0.0001
vn -1.0000 -0.0000 0.0001
vn -1.0000 -0.0000 -0.0043
vn -0.9475 -0.3197 -0.0026
vn -0.9471 0.3210 -0.0001
vn -0.9205 0.3908 -0.0002
vn -0.9210 0.3895 -0.0003
vn -0.9477 0.3191 -0.0021
vn 0.0410 -0.0836 0.9957
vn 0.0774 -0.2391 0.9679
vn 0.1692 -0.0000 0.9856
vn 0.1411 0.2894 0.9468
vn 0.1113 0.3632 0.9250
vn 0.1385 -0.2889 0.9473
vn 0.9952 -0.0954 -0.0222
vn 0.9687 -0.2398 -0.0635
vn 0.9791 -0.0000 -0.2032
vn 0.9493 0.2725 -0.1568
vn 0.9295 0.3549 -0.1003
vn 0.9498 -0.2720 -0.1548
vn -0.0410 -0.0836 -0.9957
vn -0.0774 -0.2391 -0.9679
vn -0.1692 -0.0000 -0.9856
vn -0.1411 0.2894 -0.9468
vn -0.1113 0.3632 -0.9250
vn -0.1385 -0.2889 -0.9473
vn -0.9952 -0.0954 0.0222
vn -0.9687 -0.2398 0.0635
vn -0.9791 -0.0000 0.2032
vn -0.9493 0.2725 0.1568
vn -0.9295 0.3549 0.1003
vn -0.9498 -0.2720 0.1548
vn -0.0000 0.0014 -1.0000
vn -1.0000 0.0006 -0.0000
vn -0.0000 0.0014 1.0000
vn 1.0000 0.0006 -0.0000
vn -0.0000 -1.0000 -0.0000
vn -0.0000 1.0000 -0.0000
vn -0.0000 1.0000 0.0001
vn -0.0000 1.0000 -0.0001
s 1
usemtl Top
f 12//194 10//194 16//194
f 12//194 16//194 14//194
usemtl Sides
f 200//1 58//2 4//3 91//4
f 199//5 59//6 8//7 93//8
f 198//9 60//10 6//11 95//12
f 197//13 61//14 2//15 57//16
f 196//17 70//18 9//19 62//20
f 195//21 71//22 17//22 99//21
f 194//23 69//24 16//24 100//23
f 193//25 73//26 15//27 88//28
f 192//29 74//30 18//31 103//32
f 191//33 67//34 14//35 104//36
f 190//37 76//38 13//39 86//40
f 189//41 77//42 19//42 107//41
f 188//43 65//44 12//44 108//43
f 187//45 79//46 11//47 84//48
f 186//49 80//50 20//51 111//52
f 185//53 63//54 10//55 112//56
f 184//57 113//58 48//59 81//60
f 183//61 114//62 49//63 115//64
f 182//65 90//66 30//67 116//68
f 181//69 110//70 47//71 117//72
f 180//49 109//73 46//74 118//72
f 179//75 119//76 45//76 78//75
f 178//77 120//78 50//79 121//80
f 177//81 92//82 32//83 122//84
f 176//85 106//86 44//87 123//88
f 175//41 105//42 43//89 124//90
f 174//91 125//92 42//93 75//94
f 173//95 126//96 51//97 127//98
f 172//99 94//100 34//101 128//102
f 171//103 102//104 41//105 129//106
f 170//29 101//107 40//108 130//106
f 169//109 131//110 39//110 72//109
f 168//111 132//112 52//113 133//114
f 167//115 96//116 36//117 134//118
f 166//119 98//120 38//121 135//122
f 165//21 97//22 37//123 136//124
f 164//125 137//126 21//127 82//128
f 163//109 138//110 53//129 139//130
f 162//23 89//24 28//131 140//132
f 161//133 141//134 35//135 68//136
f 160//137 142//138 54//139 143//140
f 159//141 87//142 26//143 144//144
f 158//145 145//146 33//147 66//148
f 157//75 146//76 55//149 147//150
f 156//43 85//44 24//151 148//152
f 155//153 149//154 31//155 64//156
f 154//157 150//158 56//159 151//160
f 153//161 83//162 22//163 152//164
f 150//158 153//161 152//164 56//159
f 48//59 112//56 153//161 150//158
f 112//56 10//55 83//162 153//161
f 109//73 154//157 151//160 46//74
f 20//51 81//60 154//157 109//73
f 81//60 48//59 150//158 154//157
f 79//46 155//153 64//156 11//47
f 46//74 151//160 155//153 79//46
f 151//160 56//159 149//154 155//153
f 146//76 156//43 148//152 55//149
f 45//76 108//43 156//43 146//76
f 108//43 12//44 85//44 156//43
f 105//42 157//75 147//150 43//89
f 19//42 78//75 157//75 105//42
f 78//75 45//76 146//76 157//75
f 76//38 158//145 66//148 13//39
f 43//89 147//150 158//145 76//38
f 147//150 55//149 145//146 158//145
f 142//138 159//141 144//144 54//139
f 42//93 104//36 159//141 142//138
f 104//36 14//35 87//142 159//141
f 101//107 160//137 143//140 40//108
f 18//31 75//94 160//137 101//107
f 75//94 42//93 142//138 160//137
f 73//26 161//133 68//136 15//27
f 40//108 143//140 161//133 73//26
f 143//140 54//139 141//134 161//133
f 138//110 162//23 140//132 53//129
f 39//110 100//23 162//23 138//110
f 100//23 16//24 89//24 162//23
f 97//22 163//109 139//130 37//123
f 17//22 72//109 163//109 97//22
f 72//109 39//110 138//110 163//109
f 70//18 164//125 82//128 9//19
f 37//123 139//130 164//125 70//18
f 139//130 53//129 137//126 164//125
f 99//21 17//22 97//22 165//21
f 88//165 15//166 98//120 166//119
f 132//112 167//115 134//118 52//113
f 35//167 95//168 167//115 132//112
f 95//168 6//169 96//116 167//115
f 98//120 168//111 133//114 38//121
f 15//166 68//170 168//111 98//120
f 68//170 35//167 132//112 168//111
f 71//22 169//109 72//109 17//22
f 38//121 133//114 169//109 71//22
f 133//114 52//113 131//110 169//109
f 103//32 18//31 101//107 170//29
f 86//171 13//172 102//104 171//103
f 126//96 172//99 128//102 51//97
f 33//173 93//174 172//99 126//96
f 93//174 8//175 94//100 172//99
f 102//104 173//95 127//98 41//105
f 13//172 66//176 173//95 102//104
f 66//176 33//173 126//96 173//95
f 74//30 174//91 75//94 18//31
f 41//105 127//98 174//91 74//30
f 127//98 51//97 125//92 174//91
f 107//41 19//42 105//42 175//41
f 84//177 11//178 106//86 176//85
f 120//78 177//81 122//84 50//79
f 31//179 91//180 177//81 120//78
f 91//180 4//181 92//82 177//81
f 106//86 178//77 121//80 44//87
f 11//178 64//182 178//77 106//86
f 64//182 31//179 120//78 178//77
f 77//42 179//75 78//75 19//42
f 44//87 121//80 179//75 77//42
f 121//80 50//79 119//76 179//75
f 111//52 20//51 109//73 180//49
f 62//183 9//184 110//70 181//69
f 114//62 182//65 116//68 49//63
f 21//185 57//186 182//65 114//62
f 57//186 2//187 90//66 182//65
f 110//70 183//61 115//64 47//71
f 9//184 82//188 183//61 110//70
f 82//188 21//185 114//62 183//61
f 80//50 184//57 81//60 20//51
f 47//71 115//64 184//57 80//50
f 115//64 49//63 113//58 184//57
f 113//58 185//53 112//56 48//59
f 49//63 116//68 185//53 113//58
f 116//68 30//67 63//54 185//53
f 117//72 47//71 80//50 186//49
f 118//72 46//74 79//46 187//45
f 119//76 188//43 108//43 45//76
f 50//79 122//84 188//43 119//76
f 122//84 32//83 65//44 188//43
f 123//88 44//87 77//42 189//41
f 7//189 3//189 23//189 84//189 86//189 25//189
f 124//90 43//89 76//38 190//37
f 125//92 191//33 104//36 42//93
f 51//97 128//102 191//33 125//92
f 128//102 34//101 67//34 191//33
f 129//106 41//105 74//30 192//29
f 130//106 40//108 73//26 193//25
f 131//110 194//23 100//23 39//110
f 52//113 134//118 194//23 131//110
f 134//118 36//117 69//24 194//23
f 135//122 38//121 71//22 195//21
f 136//124 37//123 70//18 196//17
f 84//190 23//190 3//190 1//190 29//190 62//190
f 137//126 197//13 57//16 21//127
f 53//129 140//132 197//13 137//126
f 140//132 28//131 61//14 197//13
f 141//134 198//9 95//12 35//135
f 54//139 144//144 198//9 141//134
f 144//144 26//143 60//10 198//9
f 145//146 199//5 93//8 33//147
f 55//149 148//152 199//5 145//146
f 148//152 24//151 59//6 199//5
f 149//154 200//1 91//4 31//155
f 56//159 152//164 200//1 149//154
f 152//164 22//163 58//2 200//1
f 88//191 62//191 29//191 1//191 5//191 27//191
f 5//192 7//192 25//192 86//192 88//192 27//192
f 61//195 28//195 89//195 16//194 10//194 63//195 30//195 90//195 2//195
f 58//196 22//196 83//196 10//194 12//194 65//196 32//196 92//196 4//196
f 59//196 24//196 85//196 12//194 14//194 67//196 34//196 94//196 8//196
f 60//195 26//195 87//195 14//194 16//194 69//195 36//195 96//195 6//195
usemtl Bottom
f 1//193 3//193 7//193 5//193
