# Blender 4.5.4 LTS
# www.blender.org
mtllib half_height_bulging_cube.mtl
o Cube
v -0.500000 -0.170168 0.500000
v -0.510229 0.329832 0.506307
v -0.500000 -0.170168 -0.500000
v -0.510229 0.329832 -0.506307
v 0.500000 -0.170168 0.500000
v 0.510229 0.329832 0.506307
v 0.500000 -0.170168 -0.500000
v 0.510229 0.329832 -0.506307
v -0.500000 -0.170168 0.000000
v -0.510229 0.079832 0.506307
v -0.514781 0.329832 0.000000
v -0.510229 0.079832 -0.506307
v 0.000000 -0.170168 -0.500000
v 0.000000 0.329832 -0.514781
v 0.510229 0.079832 -0.506307
v 0.500000 -0.170168 0.000000
v 0.514781 0.329832 0.000000
v 0.510229 0.079832 0.506307
v 0.000000 -0.170168 0.500000
v 0.000000 0.329832 0.514781
v 0.000000 0.329832 0.000000
v 0.000000 -0.170168 0.000000
v 0.000000 0.079832 0.514781
v 0.514781 0.079832 0.000000
v 0.000000 0.079832 -0.514781
v -0.514781 0.079832 0.000000
v -0.557624 0.204832 0.567826
v -0.514755 0.329832 -0.250000
v -0.500000 -0.045168 -0.500000
v 0.250000 0.329832 -0.514781
v 0.500000 -0.045168 -0.500000
v 0.514755 0.329832 0.250000
v 0.500000 -0.045168 0.500000
v -0.250000 0.329832 0.514781
v -0.500000 -0.045168 0.500000
v -0.514755 0.329832 0.250000
v -0.557624 0.204832 -0.567826
v -0.250000 0.329832 -0.514781
v 0.557624 0.204832 -0.567826
v 0.514755 0.329832 -0.250000
v 0.557624 0.204832 0.567826
v 0.250000 0.329832 0.514781
v 0.000000 0.329832 0.250000
v 0.000000 0.329832 -0.250000
v 0.250000 0.329832 0.000000
v -0.250000 0.329832 0.000000
v -0.250000 0.079832 0.514781
v 0.250000 0.079832 0.514781
v 0.000000 -0.045168 0.500000
v 0.000000 0.204832 0.600000
v 0.514755 0.079832 0.250000
v 0.514755 0.079832 -0.250000
v 0.500000 -0.045168 0.000000
v 0.600000 0.204832 0.000000
v 0.250000 0.079832 -0.514781
v -0.250000 0.079832 -0.514781
v 0.000000 -0.045168 -0.500000
v 0.000000 0.204832 -0.600000
v -0.514755 0.079832 -0.250000
v -0.514755 0.079832 0.250000
v -0.500000 -0.045168 0.000000
v -0.600000 0.204832 0.000000
v -0.600000 0.204832 0.256307
v -0.500000 -0.045168 0.250000
v -0.500000 -0.045168 -0.250000
v -0.251245 0.204832 -0.600000
v -0.250000 -0.045168 -0.500000
v 0.250000 -0.045168 -0.500000
v 0.600000 0.204832 -0.256307
v 0.500000 -0.045168 -0.250000
v 0.500000 -0.045168 0.250000
v 0.251245 0.204832 0.600000
v 0.250000 -0.045168 0.500000
v -0.250000 -0.045168 0.500000
v -0.250000 0.329832 -0.250000
v 0.250000 0.329832 -0.250000
v 0.250000 0.329832 0.250000
v -0.250000 0.329832 0.250000
v -0.251245 0.204832 0.600000
v 0.600000 0.204832 0.256307
v 0.251245 0.204832 -0.600000
v -0.600000 0.204832 -0.256307
v -0.544656 0.267332 0.544656
v -0.513566 0.329832 -0.376487
v 0.378093 0.329832 -0.514781
v 0.513566 0.329832 0.376487
v -0.378093 0.329832 0.514781
v -0.500000 0.017332 0.500000
v -0.514781 0.329832 0.125000
v -0.544656 0.142332 -0.544656
v -0.125000 0.329832 -0.514781
v 0.544656 0.142332 -0.544656
v 0.514781 0.329832 -0.125000
v 0.544656 0.142332 0.544656
v 0.125000 0.329832 0.514781
v -0.378093 0.079832 0.514781
v 0.125000 0.079832 0.514781
v 0.000000 0.142332 0.567826
v 0.513566 0.079832 0.376487
v 0.514781 0.079832 -0.125000
v 0.567826 0.142332 0.000000
v 0.378093 0.079832 -0.514781
v -0.125000 0.079832 -0.514781
v 0.000000 0.142332 -0.567826
v -0.513566 0.079832 -0.376487
v -0.514781 0.079832 0.125000
v -0.567826 0.142332 0.000000
v -0.544656 0.142332 0.544656
v -0.514781 0.329832 -0.125000
v -0.500000 0.017332 -0.500000
v 0.125000 0.329832 -0.514781
v 0.500000 0.017332 -0.500000
v 0.514781 0.329832 0.125000
v 0.500000 0.017332 0.500000
v -0.125000 0.329832 0.514781
v -0.513566 0.329832 0.376487
v -0.544656 0.267332 -0.544656
v -0.378093 0.329832 -0.514781
v 0.544656 0.267332 -0.544656
v 0.513566 0.329832 -0.376487
v 0.544656 0.267332 0.544656
v 0.378093 0.329832 0.514781
v -0.125000 0.079832 0.514781
v 0.378093 0.079832 0.514781
v 0.000000 0.017332 0.500000
v 0.000000 0.267332 0.567826
v 0.514781 0.079832 0.125000
v 0.513566 0.079832 -0.376487
v 0.500000 0.017332 0.000000
v 0.567826 0.267332 0.000000
v 0.125000 0.079832 -0.514781
v -0.378093 0.079832 -0.514781
v 0.000000 0.017332 -0.500000
v 0.000000 0.267332 -0.567826
v -0.514781 0.079832 -0.125000
v -0.513566 0.079832 0.376487
v -0.500000 0.017332 0.000000
v -0.567826 0.267332 0.000000
v -0.600000 0.204832 0.125000
v -0.600000 0.204832 0.419656
v -0.567786 0.142332 0.251487
v -0.567786 0.267332 0.251487
v -0.500000 0.017332 0.250000
v -0.500000 0.017332 -0.250000
v -0.125000 0.204832 -0.600000
v -0.401157 0.204832 -0.600000
v -0.250499 0.142332 -0.567826
v -0.250499 0.267332 -0.567826
v -0.250000 0.017332 -0.500000
v 0.250000 0.017332 -0.500000
v 0.600000 0.204832 -0.125000
v 0.600000 0.204832 -0.419656
v 0.567786 0.142332 -0.251487
v 0.567786 0.267332 -0.251487
v 0.500000 0.017332 -0.250000
v 0.500000 0.017332 0.250000
v 0.125000 0.204832 0.600000
v 0.401157 0.204832 0.600000
v 0.250499 0.142332 0.567826
v 0.250499 0.267332 0.567826
v 0.250000 0.017332 0.500000
v -0.250000 0.017332 0.500000
v -0.401157 0.204832 0.600000
v -0.125000 0.204832 0.600000
v -0.250499 0.142332 0.567826
v -0.250499 0.267332 0.567826
v 0.600000 0.204832 0.419656
v 0.600000 0.204832 0.125000
v 0.567786 0.142332 0.251487
v 0.567786 0.267332 0.251487
v 0.401157 0.204832 -0.600000
v 0.125000 0.204832 -0.600000
v 0.250499 0.142332 -0.567826
v 0.250499 0.267332 -0.567826
v -0.600000 0.204832 -0.419656
v -0.600000 0.204832 -0.125000
v -0.567786 0.142332 -0.251487
v -0.567786 0.267332 -0.251487
v -0.567826 0.267332 -0.125000
v -0.567826 0.142332 -0.125000
v -0.567315 0.142332 -0.402348
v 0.125000 0.267332 -0.567826
v 0.125000 0.142332 -0.567826
v 0.396730 0.142332 -0.567826
v 0.567826 0.267332 0.125000
v 0.567826 0.142332 0.125000
v 0.567315 0.142332 0.402348
v -0.125000 0.267332 0.567826
v -0.125000 0.142332 0.567826
v -0.396730 0.142332 0.567826
v -0.381307 0.329832 0.125000
v -0.125000 0.329832 0.381307
v 0.381307 0.329832 0.125000
v 0.380703 0.329832 0.381307
v 0.125000 0.329832 -0.381307
v 0.380703 0.329832 -0.381307
v 0.381307 0.329832 -0.125000
v -0.380703 0.329832 -0.381307
v -0.125000 0.329832 -0.381307
v -0.125000 0.017332 0.500000
v 0.375000 0.017332 0.500000
v 0.396730 0.267332 0.567826
v 0.396730 0.142332 0.567826
v 0.125000 0.142332 0.567826
v 0.500000 0.017332 0.125000
v 0.500000 0.017332 -0.375000
v 0.567315 0.267332 -0.402348
v 0.567315 0.142332 -0.402348
v 0.567826 0.142332 -0.125000
v 0.125000 0.017332 -0.500000
v -0.375000 0.017332 -0.500000
v -0.396730 0.267332 -0.567826
v -0.396730 0.142332 -0.567826
v -0.125000 0.142332 -0.567826
v -0.500000 0.017332 -0.125000
v -0.500000 0.017332 0.375000
v -0.567315 0.267332 0.402348
v -0.567315 0.142332 0.402348
v -0.567826 0.142332 0.125000
v -0.567826 0.267332 0.125000
v -0.500000 0.017332 0.125000
v -0.500000 0.017332 -0.375000
v -0.125000 0.267332 -0.567826
v -0.125000 0.017332 -0.500000
v 0.375000 0.017332 -0.500000
v 0.567826 0.267332 -0.125000
v 0.500000 0.017332 -0.125000
v 0.500000 0.017332 0.375000
v 0.125000 0.267332 0.567826
v 0.125000 0.017332 0.500000
v -0.375000 0.017332 0.500000
v -0.381307 0.329832 -0.125000
v 0.125000 0.329832 0.381307
v -0.380703 0.329832 0.381307
v -0.396730 0.267332 0.567826
v 0.567315 0.267332 0.402348
v 0.396730 0.267332 -0.567826
v -0.567315 0.267332 -0.402348
vn -0.8461 0.5286 -0.0686
vn -0.7754 0.6306 -0.0337
vn -0.7960 0.6005 -0.0760
vn -0.8658 0.4758 -0.1546
vn 0.0656 0.5350 -0.8423
vn 0.0388 0.6326 -0.7735
vn 0.0888 0.6122 -0.7857
vn 0.1327 0.5023 -0.8544
vn 0.8461 0.5286 0.0686
vn 0.7754 0.6306 0.0337
vn 0.7960 0.6005 0.0760
vn 0.8658 0.4758 0.1546
vn -0.0656 0.5350 0.8423
vn -0.0388 0.6326 0.7735
vn -0.0888 0.6122 0.7857
vn -0.1327 0.5023 0.8544
vn -1.0000 -0.0000 -0.0000
vn -0.9947 -0.1029 -0.0044
vn -0.0000 1.0000 -0.0000
vn -0.9947 -0.1029 0.0044
vn -0.0079 -0.1010 0.9949
vn -0.0171 -0.0893 0.9959
vn -0.0000 -0.0000 1.0000
vn -0.0287 -0.4304 0.9022
vn -0.0672 -0.4404 0.8953
vn -0.0000 -0.1159 0.9933
vn -0.0000 -0.4511 0.8925
vn -0.0000 0.5560 0.8312
vn -0.0000 0.6471 0.7624
vn 0.9947 -0.1029 0.0044
vn 0.9026 -0.4300 0.0219
vn 0.8970 -0.4392 0.0509
vn 0.9952 -0.0972 0.0067
vn 0.9933 -0.1158 -0.0000
vn 0.8925 -0.4510 -0.0001
vn 0.8925 -0.4511 -0.0000
vn 0.9933 -0.1159 -0.0000
vn 0.8312 0.5560 -0.0001
vn 0.7624 0.6471 -0.0001
vn 0.7624 0.6471 -0.0000
vn 0.8312 0.5560 -0.0000
vn 0.0079 -0.1010 -0.9949
vn 0.0287 -0.4304 -0.9022
vn 0.0672 -0.4404 -0.8953
vn 0.0171 -0.0893 -0.9959
vn -0.0000 -0.1159 -0.9933
vn -0.0000 -0.4511 -0.8925
vn -0.0000 0.5560 -0.8312
vn -0.0000 0.6471 -0.7624
vn -0.9026 -0.4300 -0.0219
vn -0.8970 -0.4392 -0.0509
vn -0.9952 -0.0972 -0.0067
vn -0.9933 -0.1158 -0.0000
vn -0.8925 -0.4510 0.0001
vn -0.8925 -0.4511 -0.0000
vn -0.9933 -0.1159 -0.0000
vn -0.8312 0.5560 0.0001
vn -0.7624 0.6471 0.0001
vn -0.7624 0.6471 -0.0000
vn -0.8312 0.5560 -0.0000
vn -0.8312 -0.5560 0.0001
vn -0.8890 -0.4578 0.0001
vn -0.8891 -0.4577 -0.0000
vn -0.8312 -0.5560 -0.0000
vn -0.8461 -0.5286 0.0686
vn -0.8979 -0.4253 0.1132
vn -0.8882 -0.4595 0.0008
vn -0.8301 -0.5576 0.0016
vn -0.8461 0.5286 0.0686
vn -0.7754 0.6306 0.0337
vn -0.7612 0.6485 0.0024
vn -0.8301 0.5576 0.0016
vn -0.9935 -0.1135 -0.0012
vn -0.9026 -0.4300 0.0219
vn -0.8930 -0.4501 0.0024
vn -0.9935 -0.1135 0.0012
vn -0.0000 -0.0000 -1.0000
vn -0.8925 -0.4510 -0.0001
vn -0.8930 -0.4501 -0.0024
vn -0.0000 -0.5560 -0.8312
vn -0.0000 -0.4577 -0.8891
vn -0.0656 -0.5350 -0.8423
vn -0.0824 -0.4393 -0.8945
vn -0.0656 0.5350 -0.8423
vn -0.0388 0.6326 -0.7735
vn -0.0079 -0.1010 -0.9949
vn -0.0287 -0.4304 -0.9022
vn 1.0000 -0.0000 -0.0000
vn 0.9935 -0.1135 -0.0012
vn 0.8312 -0.5560 -0.0001
vn 0.8890 -0.4578 -0.0001
vn 0.8891 -0.4577 -0.0000
vn 0.8312 -0.5560 -0.0000
vn 0.8461 -0.5286 -0.0686
vn 0.8979 -0.4253 -0.1132
vn 0.8882 -0.4595 -0.0008
vn 0.8301 -0.5576 -0.0016
vn 0.8461 0.5286 -0.0686
vn 0.7754 0.6306 -0.0337
vn 0.7612 0.6485 -0.0024
vn 0.8301 0.5576 -0.0016
vn 0.9935 -0.1135 0.0012
vn 0.9947 -0.1029 -0.0044
vn 0.9026 -0.4300 -0.0219
vn 0.8930 -0.4501 -0.0024
vn 0.8925 -0.4510 0.0001
vn 0.8930 -0.4501 0.0024
vn -0.0000 -0.5560 0.8312
vn -0.0000 -0.4577 0.8891
vn 0.0656 -0.5350 0.8423
vn 0.0824 -0.4393 0.8945
vn 0.0656 0.5350 0.8423
vn 0.0388 0.6326 0.7735
vn 0.0079 -0.1010 0.9949
vn 0.0287 -0.4304 0.9022
vn -0.0000 -1.0000 -0.0000
vn -0.0656 -0.5350 0.8423
vn -0.0824 -0.4393 0.8945
vn -0.1625 -0.4183 0.8937
vn -0.1327 -0.5023 0.8544
vn 0.8461 -0.5286 0.0686
vn 0.8979 -0.4253 0.1132
vn 0.8974 -0.3928 0.2009
vn 0.8658 -0.4758 0.1546
vn 0.8312 -0.5560 0.0001
vn 0.8890 -0.4578 0.0001
vn 0.8882 -0.4595 0.0008
vn 0.8301 -0.5576 0.0016
vn 0.8312 0.5560 0.0001
vn 0.7624 0.6471 0.0001
vn 0.7612 0.6485 0.0024
vn 0.8301 0.5576 0.0016
vn 0.0656 -0.5350 -0.8423
vn 0.0824 -0.4393 -0.8945
vn 0.1625 -0.4183 -0.8937
vn 0.1327 -0.5023 -0.8544
vn -0.8461 -0.5286 -0.0686
vn -0.8979 -0.4253 -0.1132
vn -0.8974 -0.3928 -0.2009
vn -0.8658 -0.4758 -0.1546
vn -0.8312 -0.5560 -0.0001
vn -0.8890 -0.4578 -0.0001
vn -0.8882 -0.4595 -0.0008
vn -0.8301 -0.5576 -0.0016
vn -0.8312 0.5560 -0.0001
vn -0.7624 0.6471 -0.0001
vn -0.7612 0.6485 -0.0024
vn -0.8301 0.5576 -0.0016
vn -0.8890 0.4578 -0.0001
vn -0.8882 0.4595 -0.0008
vn -0.8891 0.4577 -0.0000
vn -0.0000 0.4577 -0.8891
vn 0.8890 0.4578 0.0001
vn 0.8882 0.4595 0.0008
vn 0.8891 0.4577 -0.0000
vn -0.0000 0.4577 0.8891
vn 0.0171 -0.0893 0.9959
vn 0.0672 -0.4404 0.8953
vn 0.0824 0.4393 0.8945
vn 0.1625 0.4183 0.8937
vn 0.1327 0.5023 0.8544
vn 0.0888 0.6122 0.7857
vn 0.1327 -0.5023 0.8544
vn 0.1625 -0.4183 0.8937
vn 0.9952 -0.0972 -0.0067
vn 0.8970 -0.4392 -0.0509
vn 0.8979 0.4253 -0.1132
vn 0.8882 0.4595 -0.0008
vn 0.8974 0.3928 -0.2009
vn 0.8658 0.4758 -0.1546
vn 0.7960 0.6005 -0.0760
vn 0.8658 -0.4758 -0.1546
vn 0.8974 -0.3928 -0.2009
vn -0.0171 -0.0893 -0.9959
vn -0.0672 -0.4404 -0.8953
vn -0.0824 0.4393 -0.8945
vn -0.1625 0.4183 -0.8937
vn -0.1327 0.5023 -0.8544
vn -0.0888 0.6122 -0.7857
vn -0.1327 -0.5023 -0.8544
vn -0.1625 -0.4183 -0.8937
vn -0.9952 -0.0972 0.0067
vn -0.8970 -0.4392 0.0509
vn -0.8979 0.4253 0.1132
vn -0.8882 0.4595 0.0008
vn -0.8974 0.3928 0.2009
vn -0.8658 0.4758 0.1546
vn -0.7960 0.6005 0.0760
vn -0.8658 -0.4758 0.1546
vn -0.8974 -0.3928 0.2009
vn -0.8890 0.4578 0.0001
vn 0.8890 0.4578 -0.0001
vn -0.0824 0.4393 0.8945
vn -0.1625 0.4183 0.8937
vn 0.8979 0.4253 0.1132
vn 0.8974 0.3928 0.2009
vn 0.0824 0.4393 -0.8945
vn 0.1625 0.4183 -0.8937
vn -0.8979 0.4253 -0.1132
vn -0.8974 0.3928 -0.2009
s 1
usemtl Top
f 234//19 116//19 2//19 87//19
f 93//19 197//19 17//19
f 192//19 115//19 20//19
f 198//19 84//19 28//19
f 28//19 232//19 75//19 198//19
f 93//19 40//19 197//19
f 14//19 199//19 44//19 195//19
f 77//19 233//19 42//19 194//19
f 86//19 32//19 194//19
f 78//19 234//19 34//19 192//19
f 191//19 89//19 36//19
f 36//19 234//19 78//19 191//19
f 191//19 78//19 46//19
f 191//19 46//19 232//19 11//19
f 45//19 76//19 44//19 21//19
f 43//19 21//19 46//19 78//19
f 195//19 44//19 76//19
f 192//19 20//19 233//19 43//19
f 28//19 109//19 232//19
f 199//19 75//19 44//19
f 75//19 232//19 46//19
f 14//19 91//19 199//19
f 193//19 17//19 197//19 45//19
f 91//19 38//19 199//19
f 86//19 194//19 122//19 6//19
f 115//19 192//19 34//19
f 195//19 76//19 196//19 30//19
f 8//19 85//19 196//19 120//19
f 77//19 194//19 32//19 193//19
f 122//19 194//19 42//19
f 30//19 111//19 195//19
f 198//19 75//19 199//19 38//19
f 118//19 4//19 84//19 198//19
f 11//19 89//19 191//19
f 75//19 46//19 21//19 44//19
f 38//19 118//19 198//19
f 197//19 76//19 45//19
f 77//19 45//19 21//19 43//19
f 36//19 116//19 234//19
f 233//19 95//19 42//19
f 95//19 233//19 20//19
f 85//19 30//19 196//19
f 76//19 197//19 40//19 196//19
f 113//19 17//19 193//19
f 77//19 193//19 45//19
f 113//19 193//19 32//19
f 120//19 196//19 40//19
f 232//19 109//19 11//19
f 78//19 192//19 43//19
f 234//19 87//19 34//19
f 43//19 233//19 77//19
f 111//19 14//19 195//19
usemtl Sides
f 238//1 84//2 4//3 117//4
f 237//5 85//6 8//7 119//8
f 236//9 86//10 6//11 121//12
f 235//13 87//14 2//15 83//16
f 65//17 222//18 29//17
f 1//17 64//17 9//17
f 216//20 64//17 35//17
f 231//21 88//22 35//23
f 231//21 96//24 10//25 88//22
f 230//26 97//27 23//27 125//26
f 229//28 95//29 20//29 126//28
f 228//30 99//31 18//32 114//33
f 227//34 100//35 24//36 129//37
f 226//38 93//39 17//40 130//41
f 225//42 102//43 15//44 112//45
f 224//46 103//47 25//47 133//46
f 223//48 91//49 14//49 134//48
f 222//18 105//50 12//51 110//52
f 221//53 106//54 26//55 137//56
f 220//57 89//58 11//59 138//60
f 219//61 139//62 62//63 107//64
f 218//65 140//66 63//67 141//68
f 217//69 116//70 36//71 142//72
f 222//18 110//52 29//17
f 65//17 144//73 222//18
f 216//20 136//74 60//75 143//76
f 67//77 149//46 224//46
f 215//53 135//78 59//79 144//73
f 214//80 145//81 58//81 104//80
f 213//82 146//83 66//81 147//80
f 212//84 118//85 38//49 148//48
f 225//42 112//45 31//77
f 68//77 150//46 225//42
f 211//86 132//87 56//47 149//46
f 70//88 155//89 227//34
f 210//46 131//47 55//47 150//46
f 209//90 151//91 54//92 101//93
f 208//94 152//95 69//96 153//97
f 207//98 120//99 40//100 154//101
f 71//88 156//102 228//30
f 206//103 128//104 52//105 155//89
f 49//23 19//23 73//23
f 73//23 161//26 230//26
f 205//34 127//106 51//107 156//102
f 204//108 157//109 50//109 98//108
f 203//110 158//111 72//109 159//108
f 202//112 122//113 42//29 160//28
f 7//88 31//88 70//88
f 74//23 162//26 231//21
f 201//114 124//115 48//27 161//26
f 200//26 123//27 47//27 162//26
f 224//46 133//46 57//77
f 31//77 7//77 68//77
f 190//117 163//118 27//119 108//120
f 189//108 164//109 79//109 165//108
f 188//28 115//29 34//29 166//28
f 187//121 167//122 41//123 94//124
f 186//125 168//126 80//127 169//128
f 185//129 113//130 32//131 170//132
f 184//133 171//134 39//135 92//136
f 183//80 172//81 81//81 173//80
f 182//48 111//49 30//49 174//48
f 181//137 175//138 37//139 90//140
f 180//141 176//142 82//143 177//144
f 179//145 109//146 28//147 178//148
f 176//149 179//145 178//148 82//150
f 62//151 138//60 179//145 176//149
f 138//60 11//59 109//146 179//145
f 135//78 180//141 177//144 59//79
f 26//55 107//64 180//141 135//78
f 107//64 62//63 176//142 180//141
f 105//50 181//137 90//140 12//51
f 59//79 177//144 181//137 105//50
f 177//144 82//143 175//138 181//137
f 172//152 182//48 174//48 81//152
f 58//152 134//48 182//48 172//152
f 134//48 14//49 111//49 182//48
f 131//47 183//80 173//80 55//47
f 25//47 104//80 183//80 131//47
f 104//80 58//81 172//81 183//80
f 102//43 184//133 92//136 15//44
f 55//47 173//80 184//133 102//43
f 173//80 81//81 171//134 184//133
f 168//153 185//129 170//132 80//154
f 54//155 130//41 185//129 168//153
f 130//41 17//40 113//130 185//129
f 127//106 186//125 169//128 51//107
f 24//36 101//93 186//125 127//106
f 101//93 54//92 168//126 186//125
f 99//31 187//121 94//124 18//32
f 51//107 169//128 187//121 99//31
f 169//128 80//127 167//122 187//121
f 164//156 188//28 166//28 79//156
f 50//156 126//28 188//28 164//156
f 126//28 20//29 115//29 188//28
f 123//27 189//108 165//108 47//27
f 23//27 98//108 189//108 123//27
f 98//108 50//109 164//109 189//108
f 96//24 190//117 108//120 10//25
f 47//27 165//108 190//117 96//24
f 165//108 79//109 163//118 190//117
f 9//17 61//17 65//17
f 61//17 9//17 64//17
f 71//88 228//30 33//88
f 5//23 73//23 19//23
f 211//86 67//77 29//77
f 3//77 67//77 13//77
f 71//88 5//88 16//88
f 3//77 29//77 67//77
f 9//17 65//17 3//17
f 53//88 16//88 70//88
f 215//53 65//17 61//17
f 16//88 53//88 71//88
f 210//46 68//77 57//77
f 70//88 227//34 53//88
f 35//23 1//23 74//23
f 125//26 23//27 123//27 200//26
f 57//77 13//77 67//77
f 73//23 230//26 49//23
f 114//157 18//158 124//115 201//114
f 29//17 3//17 65//17
f 13//77 57//77 68//77
f 158//159 202//112 160//28 72//156
f 41//160 121//161 202//112 158//159
f 121//161 6//162 122//113 202//112
f 124//115 203//110 159//108 48//27
f 18//158 94//163 203//110 124//115
f 94//163 41//164 158//111 203//110
f 97//27 204//108 98//108 23//27
f 48//27 159//108 204//108 97//27
f 159//108 72//109 157//109 204//108
f 33//88 5//88 71//88
f 129//37 24//36 127//106 205//34
f 64//17 221//53 61//17
f 19//23 49//23 74//23
f 112//165 15//166 128//104 206//103
f 206//103 70//88 31//88
f 5//23 33//23 73//23
f 152//167 207//98 154//101 69//168
f 39//169 119//170 207//98 152//167
f 119//170 8//171 120//99 207//98
f 128//104 208//94 153//97 52//105
f 15//166 92//172 208//94 128//104
f 92//172 39//173 152//95 208//94
f 100//35 209//90 101//93 24//36
f 52//105 153//97 209//90 100//35
f 153//97 69//96 151//91 209//90
f 133//46 25//47 131//47 210//46
f 1//17 35//17 64//17
f 74//23 231//21 35//23
f 67//77 224//46 57//77
f 110//174 12//175 132//87 211//86
f 13//77 68//77 7//77
f 221//53 137//56 61//17
f 146//176 212//84 148//48 66//152
f 37//177 117//178 212//84 146//176
f 117//178 4//179 118//85 212//84
f 132//87 213//82 147//80 56//47
f 12//175 90//180 213//82 132//87
f 90//180 37//181 146//83 213//82
f 103//47 214//80 104//80 25//47
f 56//47 147//80 214//80 103//47
f 147//80 66//81 145//81 214//80
f 137//56 26//55 135//78 215//53
f 68//77 225//42 31//77
f 88//182 10//183 136//74 216//20
f 230//26 125//26 49//23
f 140//184 217//69 142//72 63//185
f 27//186 83//187 217//69 140//184
f 83//187 2//188 116//70 217//69
f 136//74 218//65 141//68 60//75
f 10//183 108//189 218//65 136//74
f 108//189 27//190 140//66 218//65
f 106//54 219//61 107//64 26//55
f 60//75 141//68 219//61 106//54
f 141//68 63//67 139//62 219//61
f 139//191 220//57 138//60 62//151
f 63//185 142//72 220//57 139//191
f 142//72 36//71 89//58 220//57
f 216//20 143//76 64//17
f 35//17 88//182 216//20
f 143//76 60//75 106//54 221//53
f 215//53 144//73 65//17
f 61//17 137//56 215//53
f 144//73 59//79 105//50 222//18
f 145//152 223//48 134//48 58//152
f 66//152 148//48 223//48 145//152
f 148//48 38//49 91//49 223//48
f 211//86 149//46 67//77
f 29//77 110//174 211//86
f 149//46 56//47 103//47 224//46
f 210//46 150//46 68//77
f 57//77 133//46 210//46
f 150//46 55//47 102//43 225//42
f 151//192 226//38 130//41 54//155
f 69//168 154//101 226//38 151//192
f 154//101 40//100 93//39 226//38
f 206//103 155//89 70//88
f 31//88 112//165 206//103
f 155//89 52//105 100//35 227//34
f 205//34 156//102 71//88
f 53//88 129//37 205//34
f 156//102 51//107 99//31 228//30
f 157//156 229//28 126//28 50//156
f 72//156 160//28 229//28 157//156
f 160//28 42//29 95//29 229//28
f 201//114 161//26 73//23
f 33//23 114//157 201//114
f 161//26 48//27 97//27 230//26
f 200//26 162//26 74//23
f 49//23 125//26 200//26
f 162//26 47//27 96//24 231//21
f 64//17 143//76 221//53
f 201//114 73//23 33//23
f 70//88 16//88 7//88
f 200//26 74//23 49//23
f 163//193 235//13 83//16 27//194
f 79//156 166//28 235//13 163//193
f 166//28 34//29 87//14 235//13
f 167//195 236//9 121//12 41//196
f 80//154 170//132 236//9 167//195
f 170//132 32//131 86//10 236//9
f 171//197 237//5 119//8 39//198
f 81//152 174//48 237//5 171//197
f 174//48 30//49 85//6 237//5
f 175//199 238//1 117//4 37//200
f 82//150 178//148 238//1 175//199
f 178//148 28//147 84//2 238//1
f 227//34 129//37 53//88
f 19//23 74//23 1//23
f 205//34 71//88 53//88
f 228//30 114//33 33//88
usemtl Bottom
f 7//116 16//116 22//116 13//116
f 5//116 19//116 22//116 16//116
f 1//116 9//116 22//116 19//116
f 9//116 3//116 13//116 22//116
